#N canvas 201 421 947 434 12;
#X obj 410 270 pvu~;
#X obj 360 270 pvu~;
#X obj 170 80 inlet~;
#X obj 170 270 outlet~;
#X obj 230 270 outlet~;
#X obj 360 300 outlet;
#X obj 420 300 outlet;
#X text 190 120 L;
#X text 240 120 R;
#X obj 230 80 inlet~;
#X obj 310 140 line~;
#X obj 173 147 *~;
#X obj 227 147 *~;
#X obj 310 110 pack 0 50;
#X obj 310 80 inlet;
#X text 180 300 L / R output;
#X text 380 330 Vumeter out;
#X obj 420 100 inlet~;
#X obj 480 100 inlet~;
#X obj 530 100 line~;
#X obj 423 167 *~;
#X obj 477 167 *~;
#X obj 530 70 pack 0 50;
#X obj 530 40 inlet;
#X text 440 140 revL;
#X text 490 140 revR;
#X obj 170 220 *~ 1;
#X obj 230 220 *~ 1;
#X obj 835 103 vu 10 80 visual_vu_R R -1 -8 0 10 #404040 #000000 1
0;
#X obj 774 103 vu 10 80 visual_vu_L L -4 -8 0 10 #404040 #000000 1
0;
#X obj 672 103 vsl 10 80 0 0.95 0 0 main_amp empty SRC 0 -9 0 10 #fcfcfc
#000000 #000000 0 1;
#X obj 724 103 vsl 10 80 0 0.95 0 0 rev_amp empty REV 0 -9 0 10 #fcfcfc
#000000 #000000 0 1;
#X connect 0 0 6 0;
#X connect 0 0 28 1;
#X connect 1 0 5 0;
#X connect 1 0 29 1;
#X connect 2 0 11 0;
#X connect 9 0 12 0;
#X connect 10 0 12 1;
#X connect 10 0 11 1;
#X connect 11 0 1 0;
#X connect 11 0 26 0;
#X connect 12 0 0 0;
#X connect 12 0 27 0;
#X connect 13 0 10 0;
#X connect 14 0 13 0;
#X connect 17 0 20 0;
#X connect 18 0 21 0;
#X connect 19 0 21 1;
#X connect 19 0 20 1;
#X connect 20 0 26 0;
#X connect 21 0 27 0;
#X connect 22 0 19 0;
#X connect 23 0 22 0;
#X connect 26 0 3 0;
#X connect 27 0 4 0;
#X connect 30 0 13 0;
#X connect 31 0 22 0;
#X coords 0 -1 1 1 229 134 1 655 64;
