#N canvas 2472 670 542 329 12;
#X obj 350 200 pvu~;
#X obj 300 200 pvu~;
#X obj 170 80 inlet~;
#X obj 170 200 outlet~;
#X obj 230 200 outlet~;
#X obj 300 230 outlet;
#X obj 360 230 outlet;
#X text 190 120 L;
#X text 240 120 R;
#X obj 230 80 inlet~;
#X obj 300 100 line~;
#X obj 173 147 *~;
#X obj 227 147 *~;
#X obj 300 70 pack 0 50;
#X obj 300 40 inlet;
#X text 180 230 L / R output;
#X text 320 260 Vumeter out;
#X text 400 80 TODO: global rev;
#X connect 0 0 6 0;
#X connect 1 0 5 0;
#X connect 2 0 11 0;
#X connect 9 0 12 0;
#X connect 10 0 12 1;
#X connect 10 0 11 1;
#X connect 11 0 1 0;
#X connect 11 0 3 0;
#X connect 12 0 0 0;
#X connect 12 0 4 0;
#X connect 13 0 10 0;
#X connect 14 0 13 0;
