#N canvas 652 149 443 485 10;
#X obj 32 110 cnv 15 19 128 empty empty empty 20 12 0 14 -233017 -66577
0;
#X obj 31 73 - 100;
#X obj 31 46 env~ 8820;
#X obj 36 114 vu 10 120 empty empty -1 -8 0 8 -1 -262144 0 0;
#X obj 31 19 inlet~;
#X text 77 157 Pablo Cetta - Trayectorias espaciales a partir de curvas
notables;
#X connect 1 0 3 0;
#X connect 2 0 1 0;
#X connect 4 0 2 0;
#X coords 0 -1 1 1 23 132 1 30 108;
