#N canvas -740 -18 616 558 10;
#X obj 92 176 outlet;
#X obj 22 176 outlet;
#X obj 162 176 outlet;
#X obj 222 176 outlet;
#X obj 282 176 outlet;
#X obj 352 176 outlet;
#X obj 412 176 outlet;
#X text 12 216 angle / distance /on / off /speed /x /y;
#X obj 72 -4 inlet;
#X obj 72 30 netreceive -u -b;
#X obj 72 60 oscparse;
#X obj 72 89 list trim;
#X obj 72 126 route ang dist on off spd x y;
#X msg 235 6 listen 666;
#X obj 322 6 loadbang;
#X text 232 -24 default udp port 😈;
#X obj 304 92 print debug;
#X obj 30 330 print L;
#X obj 90 330 print R;
#X obj 30 280 unpack f f;
#X obj 320 390 hsl 128 15 0 127 0 0 empty empty empty -2 -8 0 10 #fcfcfc
#000000 #000000 7017 1;
#X obj 140 290 line 0 500;
#X obj 150 260 pack 0 20;
#X floatatom 270 310 5 0 0 0 - - -, f 5;
#X connect 8 0 9 0;
#X connect 9 0 10 0;
#X connect 10 0 11 0;
#X connect 11 0 12 0;
#X connect 12 0 1 0;
#X connect 12 1 0 0;
#X connect 12 1 19 0;
#X connect 12 2 2 0;
#X connect 12 3 3 0;
#X connect 12 4 4 0;
#X connect 12 5 5 0;
#X connect 12 6 6 0;
#X connect 13 0 9 0;
#X connect 14 0 13 0;
#X connect 19 1 22 0;
#X connect 21 0 18 0;
#X connect 21 0 20 0;
#X connect 22 0 21 0;
#X connect 23 0 22 1;
