#N canvas 1992 64 1848 991 10;
#X obj 111 250 outlet~;
#X obj 376 250 outlet~;
#X obj 0 -60 bng 15 250 50 0 empty empty empty 17 7 0 10 #fcfcfc #000000
#000000;
#X obj 620 250 outlet~;
#X obj 880 250 outlet~;
#X obj 1410 194 lop~;
#X obj 1411 232 hip~;
#X obj 1072 100 nbx 5 14 -1e+37 1e+37 0 0 empty empty LF\ cutoff\ (hz)
0 -8 0 10 #fcfcfc #000000 #000000 0 256 0;
#X obj 1444 133 pack 0 20;
#X obj 1444 155 line;
#X obj 1182 100 nbx 5 14 -1e+37 1e+37 0 0 empty empty HF\ cutoff\ (hz)
0 -8 0 10 #fcfcfc #000000 #000000 0 256 0;
#X obj 1377 134 pack 0 20;
#X obj 1377 156 line;
#X obj 1411 288 s~ \$0-filt;
#X obj 1394 41 r~ \$0-in_space;
#X msg 1096 3 200;
#X msg 1140 2 12000;
#X obj 1085 -36 loadbang;
#X obj 1411 262 *~ 0.5;
#X obj 64 103 line~;
#X obj 64 33 inlet;
#X obj 30 -33 inlet~;
#X obj 340 29 inlet;
#X obj 64 63 / 100;
#X obj 168 104 line~;
#X obj 150 165 *~;
#X obj 70 151 *~;
#X obj 189 133 r~ \$0-filt;
#X obj 168 84 pack 0 40;
#X obj 64 83 pack 0 40;
#X obj 30 -10 s~ \$0-in_space;
#X obj 73 128 r~ \$0-in_space;
#X obj 322 102 line~;
#X obj 322 62 / 100;
#X obj 426 103 line~;
#X obj 411 153 *~;
#X obj 307 153 *~;
#X obj 411 126 r~ \$0-filt;
#X obj 426 83 pack 0 40;
#X obj 322 82 pack 0 40;
#X obj 307 126 r~ \$0-in_space;
#X obj 426 60 expr (1 - $f1/100);
#X obj 168 61 expr (1 - $f1/100);
#X obj 112 208 *~;
#X obj 374 204 *~;
#X obj 588 31 inlet;
#X obj 570 104 line~;
#X obj 570 64 / 100;
#X obj 674 105 line~;
#X obj 659 155 *~;
#X obj 555 155 *~;
#X obj 659 128 r~ \$0-filt;
#X obj 674 85 pack 0 40;
#X obj 570 84 pack 0 40;
#X obj 555 128 r~ \$0-in_space;
#X obj 674 62 expr (1 - $f1/100);
#X obj 622 206 *~;
#X obj 848 27 inlet;
#X obj 830 100 line~;
#X obj 830 60 / 100;
#X obj 934 101 line~;
#X obj 919 151 *~;
#X obj 815 151 *~;
#X obj 919 124 r~ \$0-filt;
#X obj 934 81 pack 0 40;
#X obj 830 80 pack 0 40;
#X obj 815 124 r~ \$0-in_space;
#X obj 934 58 expr (1 - $f1/100);
#X obj 882 202 *~;
#X connect 5 0 6 0;
#X connect 6 0 18 0;
#X connect 7 0 8 0;
#X connect 8 0 9 0;
#X connect 9 0 6 1;
#X connect 10 0 11 0;
#X connect 11 0 12 0;
#X connect 12 0 5 1;
#X connect 14 0 5 0;
#X connect 15 0 7 0;
#X connect 16 0 10 0;
#X connect 17 0 15 0;
#X connect 17 0 16 0;
#X connect 18 0 13 0;
#X connect 19 0 26 1;
#X connect 19 0 43 1;
#X connect 20 0 23 0;
#X connect 20 0 42 0;
#X connect 21 0 30 0;
#X connect 22 0 33 0;
#X connect 22 0 41 0;
#X connect 23 0 29 0;
#X connect 24 0 25 1;
#X connect 25 0 43 0;
#X connect 26 0 43 0;
#X connect 27 0 25 0;
#X connect 28 0 24 0;
#X connect 29 0 19 0;
#X connect 31 0 26 0;
#X connect 32 0 36 1;
#X connect 32 0 44 1;
#X connect 33 0 39 0;
#X connect 34 0 35 1;
#X connect 35 0 44 0;
#X connect 36 0 44 0;
#X connect 37 0 35 0;
#X connect 38 0 34 0;
#X connect 39 0 32 0;
#X connect 40 0 36 0;
#X connect 41 0 38 0;
#X connect 42 0 28 0;
#X connect 43 0 0 0;
#X connect 44 0 1 0;
#X connect 45 0 47 0;
#X connect 45 0 55 0;
#X connect 46 0 50 1;
#X connect 46 0 56 1;
#X connect 47 0 53 0;
#X connect 48 0 49 1;
#X connect 49 0 56 0;
#X connect 50 0 56 0;
#X connect 51 0 49 0;
#X connect 52 0 48 0;
#X connect 53 0 46 0;
#X connect 54 0 50 0;
#X connect 55 0 52 0;
#X connect 56 0 3 0;
#X connect 57 0 59 0;
#X connect 57 0 67 0;
#X connect 58 0 62 1;
#X connect 58 0 68 1;
#X connect 59 0 65 0;
#X connect 60 0 61 1;
#X connect 61 0 68 0;
#X connect 62 0 68 0;
#X connect 63 0 61 0;
#X connect 64 0 60 0;
#X connect 65 0 58 0;
#X connect 66 0 62 0;
#X connect 67 0 64 0;
#X connect 68 0 4 0;
#X coords 0 -1 1 1 213 59 1 1061 59;
