#N canvas -8 -8 1366 680 10;
#X obj 202 63 line~;
#X obj 202 -7 inlet;
#X obj 172 232 outlet~;
#X obj 130 -40 inlet~;
#X obj 182 112 *~;
#X obj 390 60 line~;
#X obj 390 -10 inlet;
#X obj 390 230 outlet~;
#X obj 372 132 *~;
#X obj 390 20 / 100;
#X obj 202 23 / 100;
#X obj 202 43 pack 0 20;
#X obj 390 40 pack 0 20;
#X obj 385 198 lop~;
#X obj 408 145 pack 0 20;
#X obj 408 165 line;
#X obj 189 185 lop~;
#X obj 212 132 pack 0 20;
#X obj 212 152 line;
#X floatatom 242 182 11 0 0 0 - - -, f 11;
#X obj 212 112 expr 3000 + $f1 * 200;
#X obj 412 112 expr 3000 + $f1 * 200;
#X obj 0 -60 bng 15 250 50 0 empty empty empty 17 7 0 10 #fcfcfc #000000
#000000;
#X obj 578 68 line~;
#X obj 578 -2 inlet;
#X obj 578 238 outlet~;
#X obj 560 140 *~;
#X obj 578 28 / 100;
#X obj 578 48 pack 0 20;
#X obj 573 206 lop~;
#X obj 596 153 pack 0 20;
#X obj 596 173 line;
#X obj 600 120 expr 3000 + $f1 * 200;
#X obj 758 69 line~;
#X obj 758 -1 inlet;
#X obj 758 239 outlet~;
#X obj 740 141 *~;
#X obj 758 29 / 100;
#X obj 758 49 pack 0 20;
#X obj 753 207 lop~;
#X obj 776 154 pack 0 20;
#X obj 776 174 line;
#X obj 780 121 expr 3000 + $f1 * 200;
#X connect 0 0 4 1;
#X connect 1 0 10 0;
#X connect 1 0 20 0;
#X connect 3 0 4 0;
#X connect 3 0 8 0;
#X connect 3 0 26 0;
#X connect 3 0 36 0;
#X connect 4 0 16 0;
#X connect 5 0 8 1;
#X connect 6 0 9 0;
#X connect 6 0 21 0;
#X connect 8 0 13 0;
#X connect 9 0 12 0;
#X connect 10 0 11 0;
#X connect 11 0 0 0;
#X connect 12 0 5 0;
#X connect 13 0 7 0;
#X connect 14 0 15 0;
#X connect 15 0 13 1;
#X connect 16 0 2 0;
#X connect 17 0 18 0;
#X connect 18 0 16 1;
#X connect 18 0 19 0;
#X connect 20 0 17 0;
#X connect 21 0 14 0;
#X connect 23 0 26 1;
#X connect 24 0 27 0;
#X connect 24 0 32 0;
#X connect 26 0 29 0;
#X connect 27 0 28 0;
#X connect 28 0 23 0;
#X connect 29 0 25 0;
#X connect 30 0 31 0;
#X connect 31 0 29 1;
#X connect 32 0 30 0;
#X connect 33 0 36 1;
#X connect 34 0 37 0;
#X connect 34 0 42 0;
#X connect 36 0 39 0;
#X connect 37 0 38 0;
#X connect 38 0 33 0;
#X connect 39 0 35 0;
#X connect 40 0 41 0;
#X connect 41 0 39 1;
#X connect 42 0 40 0;
