#N canvas 1824 6 1254 576 10;
#X obj 135 193 tabread R;
#X obj 47 196 tabread L;
#X obj 379 167 tabread reverb;
#X obj 264 167 tabread distancia;
#X obj 136 456 *~;
#X obj 270 456 *~;
#X obj 179 316 lop~ 8000;
#X obj 180 384 *~;
#X obj 48 239 line~;
#X obj 134 234 line~;
#X obj 264 209 expr 1 - $f1;
#X obj 420 262 line, f 6;
#X obj 180 348 *~ 0.6;
#X obj 439 105 s dist;
#X obj 169 155 s ang;
#X obj 265 250 line~;
#X obj 179 415 ../processors/rev~;
#X obj 169 115 inlet;
#X obj 69 105 inlet~;
#X obj 379 55 inlet;
#X text 59 85 Audio input;
#X text 169 85 angle;
#X text 420 195 distance from table to filter cuttoff formula;
#X text 369 35 distance;
#X obj 136 496 outlet~;
#X obj 269 495 outlet~;
#X text 159 475 L;
#X text 289 475 R;
#X floatatom 430 330 10 0 0 0 - - -, f 10;
#X obj 420 220 expr 16000 - ((1+$f1) * 3000);
#X obj 420 241 pack 0 50;
#X obj 264 230 pack 0 50;
#X obj 134 214 pack 0 50;
#X obj 47 219 pack 0 50;
#X connect 0 0 32 0;
#X connect 1 0 33 0;
#X connect 2 0 16 1;
#X connect 3 0 10 0;
#X connect 3 0 29 0;
#X connect 4 0 24 0;
#X connect 5 0 25 0;
#X connect 6 0 12 0;
#X connect 7 0 16 0;
#X connect 7 0 4 0;
#X connect 7 0 5 0;
#X connect 8 0 4 1;
#X connect 9 0 5 1;
#X connect 10 0 31 0;
#X connect 11 0 6 1;
#X connect 11 0 28 0;
#X connect 12 0 7 0;
#X connect 15 0 7 1;
#X connect 16 0 4 0;
#X connect 16 1 5 0;
#X connect 17 0 1 0;
#X connect 17 0 0 0;
#X connect 17 0 14 0;
#X connect 18 0 6 0;
#X connect 19 0 3 0;
#X connect 19 0 2 0;
#X connect 19 0 13 0;
#X connect 29 0 30 0;
#X connect 30 0 11 0;
#X connect 31 0 15 0;
#X connect 32 0 9 0;
#X connect 33 0 8 0;
