#N canvas 263 538 1252 575 10;
#X obj 135 193 tabread R;
#X obj 47 196 tabread L;
#X obj 379 167 tabread reverb;
#X obj 264 167 tabread distancia;
#X obj 136 456 *~;
#X obj 270 456 *~;
#X obj 179 316 lop~ 8000;
#X obj 180 384 *~;
#X obj 48 239 line~;
#X obj 134 234 line~;
#X obj 264 209 expr 1 - $f1;
#X obj 420 220 expr 10000 - ((1+$f1) * 3000);
#X obj 420 262 line, f 6;
#X obj 134 214 pack 0 100;
#X obj 47 219 pack 0 100;
#X obj 420 241 pack 0 250;
#X obj 180 348 *~ 0.6;
#X obj 439 105 s dist;
#X obj 169 155 s ang;
#X obj 265 250 line~;
#X obj 264 230 pack 0 100;
#X obj 179 415 ../processors/rev~;
#X obj 169 115 inlet;
#X obj 69 105 inlet~;
#X obj 379 55 inlet;
#X text 59 85 Audio input;
#X text 169 85 angle;
#X text 420 195 distance from table to filter cuttoff formula;
#X text 369 35 distance;
#X obj 136 496 outlet~;
#X obj 269 495 outlet~;
#X text 159 475 L;
#X text 289 475 R;
#X connect 0 0 13 0;
#X connect 1 0 14 0;
#X connect 2 0 21 1;
#X connect 3 0 10 0;
#X connect 3 0 11 0;
#X connect 4 0 29 0;
#X connect 5 0 30 0;
#X connect 6 0 16 0;
#X connect 7 0 4 0;
#X connect 7 0 5 0;
#X connect 7 0 21 0;
#X connect 8 0 4 1;
#X connect 9 0 5 1;
#X connect 10 0 20 0;
#X connect 11 0 15 0;
#X connect 12 0 6 1;
#X connect 13 0 9 0;
#X connect 14 0 8 0;
#X connect 15 0 12 0;
#X connect 16 0 7 0;
#X connect 19 0 7 1;
#X connect 20 0 19 0;
#X connect 21 0 4 0;
#X connect 21 1 5 0;
#X connect 22 0 1 0;
#X connect 22 0 0 0;
#X connect 22 0 18 0;
#X connect 23 0 6 0;
#X connect 24 0 3 0;
#X connect 24 0 2 0;
#X connect 24 0 17 0;
