#N canvas 666 421 1254 576 10;
#X obj 89 198 line~;
#X obj 89 128 inlet;
#X obj 135 344 outlet~;
#X obj 62 59 inlet~;
#X obj 370 124 inlet;
#X obj 396 337 outlet~;
#X obj 89 158 / 100;
#X obj 1097 296 lop~;
#X obj 1098 334 hip~;
#X obj 759 202 nbx 5 14 -1e+37 1e+37 0 0 empty empty LF\ cutoff\ (hz)
0 -8 0 10 #fcfcfc #000000 #000000 0 256 0;
#X obj 1131 235 pack 0 20;
#X obj 1131 257 line;
#X obj 869 202 nbx 5 14 -1e+37 1e+37 0 0 empty empty HF\ cutoff\ (hz)
0 -8 0 10 #fcfcfc #000000 #000000 0 256 0;
#X obj 1064 236 pack 0 20;
#X obj 1064 258 line;
#X obj 616 715 sig~;
#X obj 616 683 expr 100;
#X obj 193 199 line~;
#X obj 175 260 *~;
#X obj 95 246 *~;
#X obj 1098 390 s~ \$0-filt;
#X obj 214 228 r~ \$0-filt;
#X obj 193 179 pack 0 40;
#X obj 89 178 pack 0 40;
#X obj 1081 143 r~ \$0-in_space;
#X obj 62 82 s~ \$0-in_space;
#X obj 98 223 r~ \$0-in_space;
#X obj 352 197 line~;
#X obj 352 157 / 100;
#X obj 456 198 line~;
#X obj 441 248 *~;
#X obj 337 248 *~;
#X obj 441 221 r~ \$0-filt;
#X obj 456 178 pack 0 40;
#X obj 352 177 pack 0 40;
#X obj 337 221 r~ \$0-in_space;
#X msg 783 105 200;
#X msg 827 104 12000;
#X obj 772 66 loadbang;
#X obj 456 155 expr (1 - $f1/100);
#X obj 193 156 expr (1 - $f1/100);
#X obj 137 303 *~;
#X obj 404 299 *~;
#X obj 1098 364 *~ 0.5;
#X floatatom 131 438 5 0 0 0 - - -, f 5;
#X obj 131 412 unsig~;
#X connect 0 0 19 1;
#X connect 0 0 41 1;
#X connect 1 0 6 0;
#X connect 1 0 40 0;
#X connect 3 0 25 0;
#X connect 4 0 28 0;
#X connect 4 0 39 0;
#X connect 6 0 23 0;
#X connect 7 0 8 0;
#X connect 8 0 43 0;
#X connect 9 0 10 0;
#X connect 10 0 11 0;
#X connect 11 0 8 1;
#X connect 12 0 13 0;
#X connect 13 0 14 0;
#X connect 14 0 7 1;
#X connect 16 0 15 0;
#X connect 17 0 18 1;
#X connect 18 0 41 0;
#X connect 19 0 41 0;
#X connect 21 0 18 0;
#X connect 22 0 17 0;
#X connect 23 0 0 0;
#X connect 24 0 7 0;
#X connect 26 0 19 0;
#X connect 27 0 31 1;
#X connect 27 0 42 1;
#X connect 28 0 34 0;
#X connect 29 0 30 1;
#X connect 30 0 42 0;
#X connect 31 0 42 0;
#X connect 32 0 30 0;
#X connect 33 0 29 0;
#X connect 34 0 27 0;
#X connect 35 0 31 0;
#X connect 36 0 9 0;
#X connect 37 0 12 0;
#X connect 38 0 36 0;
#X connect 38 0 37 0;
#X connect 39 0 33 0;
#X connect 40 0 22 0;
#X connect 41 0 2 0;
#X connect 42 0 5 0;
#X connect 43 0 20 0;
#X connect 45 0 44 0;
#X coords 0 -1 1 1 217 58 1 748 164;
