#N canvas 0 421 1920 1018 10;
#X obj 311 177 vsl 8 70 0 0.8 0 1 vol1 vol1 1 0 -9 0 10 #ffffff #000000
#000000 6900 1;
#X obj 305 331 vsl 8 65 0 7000 0 0 A1 A1 A1 0 -9 0 10 #ffffff #000000
#000000 702 1;
#X obj 321 331 vsl 8 65 0 7000 0 0 D1 D1 D1 0 -9 0 10 #ffffff #000000
#000000 4683 1;
#X obj 336 331 vsl 8 65 0 100 0 0 S1 S1 S1 0 -9 0 10 #ffffff #000000
#000000 5120 1;
#X obj 352 331 vsl 8 65 0 7000 0 0 R1 R1 R1 0 -9 0 10 #ffffff #000000
#000000 549 1;
#X obj 380 330 nbx 5 14 0 7000 0 1 A1 A1 A1 -13 8 0 10 #ffffff #000000
#000000 767.812 256 0;
#X obj 380 347 nbx 5 14 0 7000 0 1 D1 D1 D1 -13 8 0 10 #ffffff #000000
#000000 5122.03 256 0;
#X obj 380 364 nbx 5 14 0 100 0 1 S1 S1 S1 -13 8 0 10 #ffffff #000000
#000000 80 256 0;
#X obj 380 381 nbx 5 14 0 7000 0 1 R1 R1 R1 -13 8 0 10 #ffffff #000000
#000000 600 256 0;
#X obj 310 267 hsl 40 8 -40 40 0 0 DET1 DET1 det 10 -8 0 10 #ffffff
#000000 #000000 1950 1;
#X obj 313 279 nbx 3 10 -40 40 0 1 DET1 DET1 empty 0 -8 0 10 #fcfcfc
#000000 #000000 0 256 0;
#X obj 320 240 nbx 3 10 0 1 0 0 vol1 vol1 empty 0 -8 0 10 #fcfcfc #000000
#000000 0.8 256 0;
#X obj 307 153 nbx 3 10 1 20 0 1 \$0-NRO1 empty arm 0 -8 0 10 #ffffff
#000000 #000000 1 256 0;
#X obj 385 178 vsl 8 70 0 0.8 0 1 vol2 vol2 2 0 -9 0 10 #ffffff #000000
#000000 6200 1;
#X obj 384 268 hsl 40 8 -40 40 0 0 DET2 DET2 det 10 -8 0 10 #ffffff
#000000 #000000 450 1;
#X obj 387 280 nbx 3 10 -40 40 0 1 DET2 DET2 empty 0 -8 0 10 #fcfcfc
#000000 #000000 -30.7692 256 0;
#X obj 394 241 nbx 3 10 0 1 0 0 vol2 vol2 empty 0 -8 0 10 #fcfcfc #000000
#000000 0.718841 256 0;
#X obj 381 154 nbx 3 10 1 20 0 1 NRO2 empty arm 0 -8 0 10 #ffffff #000000
#000000 2 256 0;
#X obj 456 176 vsl 8 70 0 0.8 0 1 vol3 vol3 3 0 -9 0 10 #ffffff #000000
#000000 4300 1;
#X obj 455 266 hsl 40 8 -40 40 0 0 DET3 DET3 det 10 -8 0 10 #ffffff
#000000 #000000 2650 1;
#X obj 458 278 nbx 3 10 -40 40 0 1 DET3 DET3 empty 0 -8 0 10 #fcfcfc
#000000 #000000 14.359 256 0;
#X obj 465 239 nbx 3 10 0 1 0 0 vol3 vol3 empty 0 -8 0 10 #fcfcfc #000000
#000000 0.498551 256 0;
#X obj 452 152 nbx 3 10 1 20 0 1 NRO3 empty arm 0 -8 0 10 #ffffff #000000
#000000 3 256 0;
#X obj 449 332 vsl 8 65 0 7000 0 0 A2 A2 A2 0 -9 0 10 #ffffff #000000
#000000 2691 1;
#X obj 465 332 vsl 8 65 0 7000 0 0 D2 D2 D2 0 -9 0 10 #ffffff #000000
#000000 274 1;
#X obj 480 332 vsl 8 65 0 100 0 0 S2 S2 S2 0 -9 0 10 #ffffff #000000
#000000 5760 1;
#X obj 496 332 vsl 8 65 0 7000 0 0 R2 R2 R2 0 -9 0 10 #ffffff #000000
#000000 731 1;
#X obj 524 331 nbx 5 14 0 7000 0 1 A2 A2 A2 -13 8 0 10 #ffffff #000000
#000000 2943.28 256 0;
#X obj 524 348 nbx 5 14 0 7000 0 1 D2 D2 D2 -13 8 0 10 #ffffff #000000
#000000 300 256 0;
#X obj 524 365 nbx 5 14 0 100 0 1 S2 S2 S2 -13 8 0 10 #ffffff #000000
#000000 90 256 0;
#X obj 524 382 nbx 5 14 0 7000 0 1 R2 R2 R2 -13 8 0 10 #ffffff #000000
#000000 800 256 0;
#X obj 593 334 vsl 8 65 0 7000 0 0 A3 A3 A3 0 -9 0 10 #ffffff #000000
#000000 549 1;
#X obj 609 334 vsl 8 65 0 7000 0 0 D3 D3 D3 0 -9 0 10 #ffffff #000000
#000000 0 1;
#X obj 624 334 vsl 8 65 0 100 0 0 S3 S3 S3 0 -9 0 10 #ffffff #000000
#000000 2800 1;
#X obj 640 334 vsl 8 65 0 7000 0 0 R3 R3 R3 0 -9 0 10 #ffffff #000000
#000000 640 1;
#X obj 668 333 nbx 5 14 0 7000 0 1 A3 A3 A3 -13 8 0 10 #ffffff #000000
#000000 600 256 0;
#X obj 668 350 nbx 5 14 0 7000 0 1 D3 D3 D3 -13 8 0 10 #ffffff #000000
#000000 0 256 0;
#X obj 668 368 nbx 5 14 0 100 0 1 S3 S3 S3 -13 8 0 10 #ffffff #000000
#000000 43.75 256 0;
#X obj 668 385 nbx 5 14 0 7000 0 1 R3 R3 R3 -13 8 0 10 #ffffff #000000
#000000 700 256 0;
#X obj 528 176 vsl 8 70 0 0.8 0 1 vol4 vol4 4 0 -9 0 10 #ffffff #000000
#000000 4400 1;
#X obj 527 266 hsl 40 8 -40 40 0 0 DET4 DET4 det 10 -8 0 10 #ffffff
#000000 #000000 3150 1;
#X obj 530 278 nbx 3 10 -40 40 0 1 DET4 DET4 empty 0 -8 0 10 #fcfcfc
#000000 #000000 24.6154 256 0;
#X obj 537 239 nbx 3 10 0 1 0 0 vol4 vol4 empty 0 -8 0 10 #fcfcfc #000000
#000000 0.510145 256 0;
#X obj 524 152 nbx 3 10 1 20 0 1 NRO4 empty arm 0 -8 0 10 #ffffff #000000
#000000 4 256 0;
#X obj 598 176 vsl 8 70 0 0.8 0 1 vol5 vol5 5 0 -9 0 10 #ffffff #000000
#000000 5200 1;
#X obj 597 266 hsl 40 8 -40 40 0 0 DET5 DET5 det 10 -8 0 10 #ffffff
#000000 #000000 3250 1;
#X obj 600 278 nbx 3 10 -40 40 0 1 DET5 DET5 empty 0 -8 0 10 #fcfcfc
#000000 #000000 26.6667 256 0;
#X obj 607 239 nbx 3 10 0 1 0 0 vol5 vol5 empty 0 -8 0 10 #fcfcfc #000000
#000000 0.602899 256 0;
#X obj 594 152 nbx 3 10 1 20 0 1 NRO5 empty arm 0 -8 0 10 #ffffff #000000
#000000 5 256 0;
#X obj 306 433 vsl 8 65 0 7000 0 0 A5 A5 A5 0 -9 0 10 #ffffff #000000
#000000 2 1;
#X obj 322 433 vsl 8 65 0 7000 0 0 D5 D5 D5 0 -9 0 10 #ffffff #000000
#000000 1291 1;
#X obj 337 433 vsl 8 65 0 100 0 0 S5 S5 S5 0 -9 0 10 #ffffff #000000
#000000 2560 1;
#X obj 353 433 vsl 8 65 0 7000 0 0 R5 R5 R5 0 -9 0 10 #ffffff #000000
#000000 823 1;
#X obj 381 432 nbx 5 14 0 7000 0 1 A5 A5 A5 -13 8 0 10 #ffffff #000000
#000000 2 256 0;
#X obj 381 449 nbx 5 14 0 7000 0 1 D5 D5 D5 -13 8 0 10 #ffffff #000000
#000000 1412.03 256 0;
#X obj 381 466 nbx 5 14 0 100 0 1 S5 S5 S5 -13 8 0 10 #ffffff #000000
#000000 40 256 0;
#X obj 381 483 nbx 5 14 0 7000 0 1 R5 R5 R5 -13 8 0 10 #ffffff #000000
#000000 900 256 0;
#X obj 668 177 vsl 8 70 0 0.8 0 1 vol6 vol6 6 0 -9 0 10 #ffffff #000000
#000000 5500 1;
#X obj 667 267 hsl 40 8 -40 40 0 0 DET6 DET6 det 10 -8 0 10 #ffffff
#000000 #000000 0 1;
#X obj 670 279 nbx 3 10 -40 40 0 1 DET6 DET6 empty 0 -8 0 10 #fcfcfc
#000000 #000000 -40 256 0;
#X obj 677 240 nbx 3 10 0 1 0 0 vol6 vol6 empty 0 -8 0 10 #fcfcfc #000000
#000000 0.637681 256 0;
#X obj 664 153 nbx 3 10 1 20 0 1 \$0-NRO6 empty arm 0 -8 0 10 #ffffff
#000000 #000000 6 256 0;
#X obj 449 435 vsl 8 65 0 7000 0 0 A6 A6 A6 0 -9 0 10 #ffffff #000000
#000000 1200 1;
#X obj 465 435 vsl 8 65 0 7000 0 0 D6 D6 D6 0 -9 0 10 #ffffff #000000
#000000 1000 1;
#X obj 480 435 vsl 8 65 0 100 0 0 S6 S6 S6 0 -9 0 10 #ffffff #000000
#000000 1900 1;
#X obj 496 435 vsl 8 65 0 7000 0 0 R6 R6 R6 0 -9 0 10 #ffffff #000000
#000000 1500 1;
#X obj 524 434 nbx 5 14 0 7000 0 1 A6 A6 A6 -13 8 0 10 #ffffff #000000
#000000 1312.5 256 0;
#X obj 524 451 nbx 5 14 0 7000 0 1 D6 D6 D6 -13 8 0 10 #ffffff #000000
#000000 1093.75 256 0;
#X obj 524 468 nbx 5 14 0 100 0 1 S6 S6 S6 -13 8 0 10 #ffffff #000000
#000000 29.6875 256 0;
#X obj 524 485 nbx 5 14 0 7000 0 1 R6 R6 R6 -13 8 0 10 #ffffff #000000
#000000 1640.62 256 0;
#X obj 737 178 vsl 8 70 0 0.8 0 1 vol7 vol7 7 0 -9 0 10 #ffffff #000000
#000000 6900 1;
#X obj 736 268 hsl 40 8 -40 40 0 0 \$0-DET7 \$0-DET7 det 10 -8 0 10
#ffffff #0400fc #000000 0 1;
#X obj 739 280 nbx 3 10 -40 40 0 1 DET7 DET7 empty 0 -8 0 10 #fcfcfc
#000000 #000000 -5.12821 256 0;
#X obj 746 241 nbx 3 10 0 1 0 0 vol7 vol7 empty 0 -8 0 10 #fcfcfc #000000
#000000 0.8 256 0;
#X obj 733 154 nbx 3 10 1 20 0 1 \$0-NRO7 empty arm 0 -8 0 10 #fcfcfc
#000000 #fcfcfc 7 256 0;
#X obj 593 436 vsl 8 65 0 7000 0 0 A7 A7 A7 0 -9 0 10 #ffffff #000000
#000000 1541 1;
#X obj 609 436 vsl 8 65 0 7000 0 0 D7 D7 D7 0 -9 0 10 #ffffff #000000
#000000 1373 1;
#X obj 624 436 vsl 8 65 0 100 0 0 S7 S7 S7 0 -9 0 10 #ffffff #000000
#000000 1980 1;
#X obj 640 436 vsl 8 65 0 7000 0 0 R7 R7 R7 0 -9 0 10 #ffffff #000000
#000000 914 1;
#X obj 668 435 nbx 5 14 0 7000 0 1 A7 A7 A7 -13 8 0 10 #ffffff #000000
#000000 1685.47 256 0;
#X obj 668 452 nbx 5 14 0 7000 0 1 D7 D7 D7 -13 8 0 10 #ffffff #000000
#000000 1501.72 256 0;
#X obj 668 469 nbx 5 14 0 100 0 1 S7 S7 S7 -13 8 0 10 #ffffff #000000
#000000 30.9375 256 0;
#X obj 668 486 nbx 5 14 0 7000 0 1 R7 R7 R7 -13 8 0 10 #ffffff #000000
#000000 1000 256 0;
#X obj 735 334 vsl 8 65 0 7000 0 0 A4 A4 A4 0 -9 0 10 #ffffff #000000
#000000 1700 1;
#X obj 751 334 vsl 8 65 0 7000 0 0 D4 D4 D4 0 -9 0 10 #ffffff #000000
#000000 2100 1;
#X obj 766 334 vsl 8 65 0 100 0 0 S4 S4 S4 0 -9 0 10 #ffffff #000000
#000000 1500 1;
#X obj 782 334 vsl 8 65 0 7000 0 0 R4 R4 R4 0 -9 0 10 #ffffff #000000
#000000 1900 1;
#X obj 810 333 nbx 5 14 0 7000 0 1 A4 A4 A4 -13 8 0 10 #ffffff #000000
#000000 1859.38 256 0;
#X obj 810 350 nbx 5 14 0 7000 0 1 D4 D4 D4 -13 8 0 10 #ffffff #000000
#000000 2296.88 256 0;
#X obj 810 367 nbx 5 14 0 100 0 1 S4 S4 S4 -13 8 0 10 #ffffff #000000
#000000 23.4375 256 0;
#X obj 810 384 nbx 5 14 0 7000 0 1 R4 R4 R4 -13 8 0 10 #ffffff #000000
#000000 2078.12 256 0;
#X obj 800 430 vsl 8 65 0 127 0 0 \$0-amp empty AMP 0 -9 0 10 #ffffff
#000000 #000000 0 1;
#X obj 280 24 inlet;
#X obj 370 24 inlet;
#X obj 460 24 inlet;
#X obj 1220 290 outlet~;
#X obj 282 47 bng 15 250 50 0 empty empty empty 17 7 0 10 #fcfcfc #000000
#000000;
#X obj 370 46 bng 15 250 50 0 empty empty empty 17 7 0 10 #fcfcfc #000000
#000000;
#X obj 460 74 s \$0-note;
#X obj 370 74 s \$0-noteoff;
#X obj 281 74 s \$0-noteon;
#X obj 1218 179 *~;
#X floatatom 1237 136 5 0 0 0 - - -, f 5;
#X obj 1050 114 r~ outoscilador1;
#X obj 1067 155 r~ outoscilador3;
#X obj 1076 176 r~ outoscilador4;
#X obj 1087 197 r~ outoscilador5;
#X obj 1090 220 r~ outoscilador6;
#X obj 1090 240 r~ outoscilador7;
#X obj 1058 134 r~ outoscilador2;
#X obj 1289 137 loadbang;
#X msg 1293 175 0.5;
#X obj 1220 250 gainvu~;
#X connect 91 0 112 1;
#X connect 92 0 96 0;
#X connect 93 0 97 0;
#X connect 94 0 98 0;
#X connect 96 0 100 0;
#X connect 97 0 99 0;
#X connect 101 0 112 0;
#X connect 102 0 101 1;
#X connect 103 0 101 0;
#X connect 104 0 101 0;
#X connect 105 0 101 0;
#X connect 106 0 101 0;
#X connect 107 0 101 0;
#X connect 108 0 101 0;
#X connect 109 0 101 0;
#X connect 110 0 111 0;
#X connect 111 0 102 0;
#X connect 112 0 95 0;
#X coords 0 -1 1 1 594 400 1 285 114;
