#N canvas 0 421 1920 1018 10;
#X obj 311 177 vsl 8 70 0 0.8 0 1 \$0-vol1 empty 1 0 -9 0 10 #ffffff
#000000 #000000 6900 1;
#X obj 305 331 vsl 8 65 0 7000 0 0 \$0-A1 \$0-A1 A1 0 -9 0 10 #ffffff
#000000 #000000 183 1;
#X obj 321 331 vsl 8 65 0 7000 0 0 \$0-D1 \$0-D1 D1 0 -9 0 10 #ffffff
#000000 #000000 469 1;
#X obj 336 331 vsl 8 65 0 100 0 0 \$0-S1 \$0-S1 S1 0 -9 0 10 #ffffff
#000000 #000000 1220 1;
#X obj 352 331 vsl 8 65 0 7000 0 0 \$0-R1 \$0-R1 R1 0 -9 0 10 #ffffff
#000000 #000000 750 1;
#X obj 380 330 nbx 5 14 0 7000 0 1 \$0-A1 \$0-A1 A1 -13 8 0 10 #ffffff
#000000 #000000 200 256 0;
#X obj 380 347 nbx 5 14 0 7000 0 1 \$0-D1 \$0-D1 D1 -13 8 0 10 #ffffff
#000000 #000000 513.281 256 0;
#X obj 380 364 nbx 5 14 0 100 0 1 \$0-S1 \$0-S1 S1 -13 8 0 10 #ffffff
#000000 #000000 19.0625 256 0;
#X obj 380 381 nbx 5 14 0 7000 0 1 \$0-R1 \$0-R1 R1 -13 8 0 10 #ffffff
#000000 #000000 820.312 256 0;
#X obj 310 267 hsl 40 8 -40 40 0 0 \$0-DET1 empty det 10 -8 0 10 #ffffff
#000000 #000000 0 1;
#X obj 313 279 nbx 3 10 -40 40 0 1 empty empty empty 0 -8 0 10 #fcfcfc
#000000 #000000 0 256 0;
#X obj 320 240 nbx 3 10 0 1 0 0 empty \$0-vol empty 0 -8 0 10 #fcfcfc
#000000 #000000 0 256 0;
#X obj 307 153 nbx 3 10 1 20 0 1 \$0-NRO1 empty arm 0 -8 0 10 #ffffff
#000000 #000000 1 256 0;
#X obj 385 178 vsl 8 70 0 0.8 0 1 \$0-vol2 \$0-vol2 2 0 -9 0 10 #ffffff
#000000 #000000 3300 1;
#X obj 384 268 hsl 40 8 -40 40 0 0 \$0-DET2 \$0-DET2 det 10 -8 0 10
#ffffff #000000 #000000 1500 1;
#X obj 387 280 nbx 3 10 -40 40 0 1 \$0-DET2 \$0-DET2 empty 0 -8 0 10
#fcfcfc #000000 #000000 -9.23077 256 0;
#X obj 394 241 nbx 3 10 0 1 0 0 \$0-vol2 \$0-vol2 empty 0 -8 0 10 #fcfcfc
#000000 #000000 0.382609 256 0;
#X obj 381 154 nbx 3 10 1 20 0 1 \$0-NRO2 empty arm 0 -8 0 10 #ffffff
#000000 #000000 2 256 0;
#X obj 456 176 vsl 8 70 0 0.8 0 1 \$0-vol3 \$0-vol3 3 0 -9 0 10 #ffffff
#000000 #000000 450 1;
#X obj 455 266 hsl 40 8 -40 40 0 0 \$0-DET3 \$0-DET3 det 10 -8 0 10
#ffffff #000000 #000000 2300 1;
#X obj 458 278 nbx 3 10 -40 40 0 1 \$0-DET3 \$0-DET3 empty 0 -8 0 10
#fcfcfc #000000 #000000 7.17949 256 0;
#X obj 465 239 nbx 3 10 0 1 0 0 \$0-vol3 \$0-vol3 empty 0 -8 0 10 #fcfcfc
#000000 #000000 0.0521739 256 0;
#X obj 452 152 nbx 3 10 1 20 0 1 \$0-NRO3 empty arm 0 -8 0 10 #ffffff
#000000 #000000 3 256 0;
#X obj 449 332 vsl 8 65 0 7000 0 0 \$0-A2 \$0-A2 A2 0 -9 0 10 #ffffff
#000000 #000000 256 1;
#X obj 465 332 vsl 8 65 0 7000 0 0 \$0-D2 \$0-D2 D2 0 -9 0 10 #ffffff
#000000 #000000 46 1;
#X obj 480 332 vsl 8 65 0 100 0 0 \$0-S2 \$0-S2 S2 0 -9 0 10 #ffffff
#000000 #000000 4360 1;
#X obj 496 332 vsl 8 65 0 7000 0 0 \$0-R2 \$0-R2 R2 0 -9 0 10 #ffffff
#000000 #000000 91 1;
#X obj 524 331 nbx 5 14 0 7000 0 1 \$0-A2 \$0-A2 A2 -13 8 0 10 #ffffff
#000000 #000000 280.125 256 0;
#X obj 524 348 nbx 5 14 0 7000 0 1 \$0-D2 \$0-D2 D2 -13 8 0 10 #ffffff
#000000 #000000 50 256 0;
#X obj 524 365 nbx 5 14 0 100 0 1 \$0-S2 \$0-S2 S2 -13 8 0 10 #ffffff
#000000 #000000 68.125 256 0;
#X obj 524 382 nbx 5 14 0 7000 0 1 \$0-R2 \$0-R2 R2 -13 8 0 10 #ffffff
#000000 #000000 100 256 0;
#X obj 593 334 vsl 8 65 0 7000 0 0 \$0-A3 \$0-A3 A3 0 -9 0 10 #ffffff
#000000 #000000 269 1;
#X obj 609 334 vsl 8 65 0 7000 0 0 \$0-D3 \$0-D3 D3 0 -9 0 10 #ffffff
#000000 #000000 11 1;
#X obj 624 334 vsl 8 65 0 100 0 0 \$0-S3 \$0-S3 S3 0 -9 0 10 #ffffff
#000000 #000000 1680 1;
#X obj 640 334 vsl 8 65 0 7000 0 0 \$0-R3 \$0-R3 R3 0 -9 0 10 #ffffff
#000000 #000000 490 1;
#X obj 668 333 nbx 5 14 0 7000 0 1 \$0-A3 \$0-A3 A3 -13 8 0 10 #ffffff
#000000 #000000 294 256 0;
#X obj 668 350 nbx 5 14 0 7000 0 1 \$0-D3 \$0-D3 D3 -13 8 0 10 #ffffff
#000000 #000000 12 256 0;
#X obj 668 368 nbx 5 14 0 100 0 1 \$0-S3 \$0-S3 S3 -13 8 0 10 #ffffff
#000000 #000000 26.25 256 0;
#X obj 668 385 nbx 5 14 0 7000 0 1 \$0-R3 \$0-R3 R3 -13 8 0 10 #ffffff
#000000 #000000 535.938 256 0;
#X obj 528 176 vsl 8 70 0 0.8 0 1 \$0-vol4 \$0-vol4 4 0 -9 0 10 #ffffff
#000000 #000000 4400 1;
#X obj 527 266 hsl 40 8 -40 40 0 0 \$0-DET4 \$0-DET4 det 10 -8 0 10
#ffffff #000000 #000000 3150 1;
#X obj 530 278 nbx 3 10 -40 40 0 1 \$0-DET4 \$0-DET4 empty 0 -8 0 10
#fcfcfc #000000 #000000 24.6154 256 0;
#X obj 537 239 nbx 3 10 0 1 0 0 \$0-vol4 \$0-vol4 empty 0 -8 0 10 #fcfcfc
#000000 #000000 0.510145 256 0;
#X obj 524 152 nbx 3 10 1 20 0 1 \$0-NRO4 empty arm 0 -8 0 10 #ffffff
#000000 #000000 4 256 0;
#X obj 598 176 vsl 8 70 0 0.8 0 1 \$0-vol5 \$0-vol5 5 0 -9 0 10 #ffffff
#000000 #000000 5300 1;
#X obj 597 266 hsl 40 8 -40 40 0 0 \$0-DET5 \$0-DET5 det 10 -8 0 10
#ffffff #000000 #000000 0 1;
#X obj 600 278 nbx 3 10 -40 40 0 1 \$0-DET5 \$0-DET5 empty 0 -8 0 10
#fcfcfc #000000 #000000 -40 256 0;
#X obj 607 239 nbx 3 10 0 1 0 0 \$0-vol5 \$0-vol5 empty 0 -8 0 10 #fcfcfc
#000000 #000000 0.614493 256 0;
#X obj 594 152 nbx 3 10 1 20 0 1 \$0-NRO5 empty arm 0 -8 0 10 #ffffff
#000000 #000000 5 256 0;
#X obj 306 433 vsl 8 65 0 7000 0 0 \$0-A5 \$0-A5 A5 0 -9 0 10 #ffffff
#000000 #000000 0 1;
#X obj 322 433 vsl 8 65 0 7000 0 0 \$0-D5 \$0-D5 D5 0 -9 0 10 #ffffff
#000000 #000000 391 1;
#X obj 337 433 vsl 8 65 0 100 0 0 \$0-S5 \$0-S5 S5 0 -9 0 10 #ffffff
#000000 #000000 1760 1;
#X obj 353 433 vsl 8 65 0 7000 0 0 \$0-R5 \$0-R5 R5 0 -9 0 10 #ffffff
#000000 #000000 705 1;
#X obj 381 432 nbx 5 14 0 7000 0 1 \$0-A5 \$0-A5 A5 -13 8 0 10 #ffffff
#000000 #000000 0 256 0;
#X obj 381 449 nbx 5 14 0 7000 0 1 \$0-D5 \$0-D5 D5 -13 8 0 10 #ffffff
#000000 #000000 427.656 256 0;
#X obj 381 466 nbx 5 14 0 100 0 1 \$0-S5 \$0-S5 S5 -13 8 0 10 #ffffff
#000000 #000000 27.5 256 0;
#X obj 381 483 nbx 5 14 0 7000 0 1 \$0-R5 \$0-R5 R5 -13 8 0 10 #ffffff
#000000 #000000 770.781 256 0;
#X obj 668 177 vsl 8 70 0 0.8 0 1 \$0-vol6 \$0-vol6 6 0 -9 0 10 #ffffff
#000000 #000000 4200 1;
#X obj 667 267 hsl 40 8 -40 40 0 0 \$0-DET6 \$0-DET6 det 10 -8 0 10
#ffffff #000000 #000000 1300 1;
#X obj 670 279 nbx 3 10 -40 40 0 1 \$0-DET6 \$0-DET6 empty 0 -8 0 10
#fcfcfc #000000 #000000 -13.3333 256 0;
#X obj 677 240 nbx 3 10 0 1 0 0 \$0-vol6 \$0-vol6 empty 0 -8 0 10 #fcfcfc
#000000 #000000 0.486957 256 0;
#X obj 664 153 nbx 3 10 1 20 0 1 \$0-NRO6 empty arm 0 -8 0 10 #ffffff
#000000 #000000 6 256 0;
#X obj 449 435 vsl 8 65 0 7000 0 0 \$0-A6 \$0-A6 A6 0 -9 0 10 #ffffff
#000000 #000000 900 1;
#X obj 465 435 vsl 8 65 0 7000 0 0 \$0-D6 \$0-D6 D6 0 -9 0 10 #ffffff
#000000 #000000 200 1;
#X obj 480 435 vsl 8 65 0 100 0 0 \$0-S6 \$0-S6 S6 0 -9 0 10 #ffffff
#000000 #000000 800 1;
#X obj 496 435 vsl 8 65 0 7000 0 0 \$0-R6 \$0-R6 R6 0 -9 0 10 #ffffff
#000000 #000000 700 1;
#X obj 524 434 nbx 5 14 0 7000 0 1 \$0-A6 \$0-A6 A6 -13 8 0 10 #ffffff
#000000 #000000 984.375 256 0;
#X obj 524 451 nbx 5 14 0 7000 0 1 \$0-D6 \$0-D6 D6 -13 8 0 10 #ffffff
#000000 #000000 218.75 256 0;
#X obj 524 468 nbx 5 14 0 100 0 1 \$0-S6 \$0-S6 S6 -13 8 0 10 #ffffff
#000000 #000000 12.5 256 0;
#X obj 524 485 nbx 5 14 0 7000 0 1 \$0-R6 \$0-R6 R6 -13 8 0 10 #ffffff
#000000 #000000 765.625 256 0;
#X obj 737 178 vsl 8 70 0 0.8 0 1 \$0-vol7 \$0-vol7 7 0 -9 0 10 #ffffff
#000000 #000000 4150 1;
#X obj 736 268 hsl 40 8 -40 40 0 0 \$0-DET7 \$0-DET7 det 10 -8 0 10
#ffffff #0400fc #000000 1200 1;
#X obj 739 280 nbx 3 10 -40 40 0 1 \$0-DET7 \$0-DET7 empty 0 -8 0 10
#fcfcfc #000000 #000000 -15.3846 256 0;
#X obj 746 241 nbx 3 10 0 1 0 0 \$0-vol7 \$0-vol7 empty 0 -8 0 10 #fcfcfc
#000000 #000000 0.481159 256 0;
#X obj 733 154 nbx 3 10 1 20 0 1 \$0-NRO7 empty arm 0 -8 0 10 #fcfcfc
#000000 #fcfcfc 7 256 0;
#X obj 593 436 vsl 8 65 0 7000 0 0 \$0-A7 \$0-A7 A7 0 -9 0 10 #ffffff
#000000 #000000 541 1;
#X obj 609 436 vsl 8 65 0 7000 0 0 \$0-D7 \$0-D7 D7 0 -9 0 10 #ffffff
#000000 #000000 873 1;
#X obj 624 436 vsl 8 65 0 100 0 0 \$0-S7 \$0-S7 S7 0 -9 0 10 #ffffff
#000000 #000000 1780 1;
#X obj 640 436 vsl 8 65 0 7000 0 0 \$0-R7 \$0-R7 R7 0 -9 0 10 #ffffff
#000000 #000000 550 1;
#X obj 668 435 nbx 5 14 0 7000 0 1 \$0-A7 \$0-A7 A7 -13 8 0 10 #ffffff
#000000 #000000 591.719 256 0;
#X obj 668 452 nbx 5 14 0 7000 0 1 \$0-D7 \$0-D7 D7 -13 8 0 10 #ffffff
#000000 #000000 954.844 256 0;
#X obj 668 469 nbx 5 14 0 100 0 1 \$0-S7 \$0-S7 S7 -13 8 0 10 #ffffff
#000000 #000000 27.8125 256 0;
#X obj 668 486 nbx 5 14 0 7000 0 1 \$0-R7 \$0-R7 R7 -13 8 0 10 #ffffff
#000000 #000000 601.562 256 0;
#X obj 735 334 vsl 8 65 0 7000 0 0 \$0-A4 \$0-A4 A4 0 -9 0 10 #ffffff
#000000 #000000 1700 1;
#X obj 751 334 vsl 8 65 0 7000 0 0 \$0-D4 \$0-D4 D4 0 -9 0 10 #ffffff
#000000 #000000 2100 1;
#X obj 766 334 vsl 8 65 0 100 0 0 \$0-S4 \$0-S4 S4 0 -9 0 10 #ffffff
#000000 #000000 1500 1;
#X obj 782 334 vsl 8 65 0 7000 0 0 \$0-R4 \$0-R4 R4 0 -9 0 10 #ffffff
#000000 #000000 1900 1;
#X obj 810 333 nbx 5 14 0 7000 0 1 \$0-A4 \$0-A4 A4 -13 8 0 10 #ffffff
#000000 #000000 1859.38 256 0;
#X obj 810 350 nbx 5 14 0 7000 0 1 \$0-D4 \$0-D4 D4 -13 8 0 10 #ffffff
#000000 #000000 2296.88 256 0;
#X obj 810 367 nbx 5 14 0 100 0 1 \$0-S4 \$0-S4 S4 -13 8 0 10 #ffffff
#000000 #000000 23.4375 256 0;
#X obj 810 384 nbx 5 14 0 7000 0 1 \$0-R4 \$0-R4 R4 -13 8 0 10 #ffffff
#000000 #000000 2078.12 256 0;
#X obj 800 430 vsl 8 65 0 127 0 0 \$0-amp empty AMP 0 -9 0 10 #ffffff
#000000 #000000 0 1;
#X obj 280 24 inlet;
#X obj 370 24 inlet;
#X obj 460 24 inlet;
#X obj 1220 290 outlet~;
#X obj 282 47 bng 15 250 50 0 empty empty empty 17 7 0 10 #fcfcfc #000000
#000000;
#X obj 370 46 bng 15 250 50 0 empty empty empty 17 7 0 10 #fcfcfc #000000
#000000;
#X obj 460 74 s \$0-note;
#X obj 370 74 s \$0-noteoff;
#X obj 281 74 s \$0-noteon;
#X obj 1218 179 *~;
#X floatatom 1237 136 5 0 0 0 - - -, f 5;
#X obj 1289 137 loadbang;
#X obj 1220 250 gainvu~;
#X floatatom 420 770 5 0 0 0 HARM #0-NRO1 -, f 5;
#X obj 389 740 adsr 0.6 200 300 70 900;
#X msg 376 688 0;
#X floatatom 442 646 5 0 0 0 A #0-A1 -, f 5;
#X floatatom 470 671 5 0 0 0 D #0-D1 -, f 5;
#X floatatom 495 692 5 0 0 0 S #0-S1 -, f 5;
#X floatatom 519 711 5 0 0 0 R #0-R1 -, f 5;
#X floatatom 416 713 5 0 0 0 vol #0-vol1 -, f 5;
#X floatatom 461 796 5 0 0 0 detune #0-DET1 -, f 5;
#X msg 409 686 1;
#X obj 343 625 r \$0-noteon;
#X obj 340 650 r \$0-noteoff;
#X obj 371 819 oscilator~;
#X text 339 598 OSCILATOR 1;
#X floatatom 682 764 5 0 0 0 HARM #0-NRO2 -, f 5;
#X obj 651 734 adsr 0.6 200 300 70 900;
#X msg 638 682 0;
#X floatatom 704 640 5 0 0 0 A #0-A2 -, f 5;
#X floatatom 732 665 5 0 0 0 D #0-D2 -, f 5;
#X floatatom 757 686 5 0 0 0 S #0-S2 -, f 5;
#X floatatom 781 705 5 0 0 0 R #0-R2 -, f 5;
#X floatatom 678 707 5 0 0 0 vol #0-vol2 -, f 5;
#X floatatom 723 790 5 0 0 0 detune #0-DET2 -, f 5;
#X msg 671 680 1;
#X obj 605 619 r \$0-noteon;
#X obj 602 644 r \$0-noteoff;
#X obj 633 813 oscilator~;
#X text 601 592 OSCILATOR 2;
#X obj 320 780 r \$0-note;
#X msg 1294 175 0.15;
#X obj 580 770 r \$0-note;
#X floatatom 972 754 5 0 0 0 HARM #0-NRO3 -, f 5;
#X obj 941 724 adsr 0.6 200 300 70 900;
#X msg 928 672 0;
#X floatatom 994 630 5 0 0 0 A #0-A3 -, f 5;
#X floatatom 1022 655 5 0 0 0 D #0-D3 -, f 5;
#X floatatom 1047 676 5 0 0 0 S #0-S3 -, f 5;
#X floatatom 1071 695 5 0 0 0 R #0-R3 -, f 5;
#X floatatom 968 697 5 0 0 0 vol #0-vol3 -, f 5;
#X floatatom 1013 780 5 0 0 0 detune #0-DET3 -, f 5;
#X msg 961 670 1;
#X obj 895 609 r \$0-noteon;
#X obj 892 634 r \$0-noteoff;
#X obj 923 803 oscilator~;
#X obj 870 760 r \$0-note;
#X text 891 582 OSCILATOR 3;
#X floatatom 1244 764 5 0 0 0 HARM #0-NRO4 -, f 5;
#X obj 1213 734 adsr 0.6 200 300 70 900;
#X msg 1200 682 0;
#X floatatom 1266 640 5 0 0 0 A #0-A4 -, f 5;
#X floatatom 1294 665 5 0 0 0 D #0-D4 -, f 5;
#X floatatom 1319 686 5 0 0 0 S #0-S4 -, f 5;
#X floatatom 1343 705 5 0 0 0 R #0-R4 -, f 5;
#X floatatom 1240 707 5 0 0 0 vol #0-vol4 -, f 5;
#X floatatom 1285 790 5 0 0 0 detune #0-DET4 -, f 5;
#X msg 1233 680 1;
#X obj 1167 619 r \$0-noteon;
#X obj 1164 644 r \$0-noteoff;
#X obj 1195 813 oscilator~;
#X obj 1142 770 r \$0-note;
#X text 1163 592 OSCILATOR 4;
#X floatatom 426 1103 5 0 0 0 HARM #0-NRO5 -, f 5;
#X obj 395 1073 adsr 0.6 200 300 70 900;
#X msg 382 1021 0;
#X floatatom 448 979 5 0 0 0 A #0-A5 -, f 5;
#X floatatom 476 1004 5 0 0 0 D #0-D5 -, f 5;
#X floatatom 501 1025 5 0 0 0 S #0-S5 -, f 5;
#X floatatom 525 1044 5 0 0 0 R #0-R5 -, f 5;
#X floatatom 422 1046 5 0 0 0 vol #0-vol5 -, f 5;
#X floatatom 467 1129 5 0 0 0 detune #0-DET5 -, f 5;
#X msg 415 1019 1;
#X obj 349 958 r \$0-noteon;
#X obj 346 983 r \$0-noteoff;
#X obj 377 1152 oscilator~;
#X obj 324 1109 r \$0-note;
#X text 345 931 OSCILATOR 5;
#X obj 371 842 s~ \$0-outoscilator1;
#X obj 633 836 s~ \$0-outoscilator2;
#X obj 923 826 s~ \$0-outoscilator3;
#X obj 1195 836 s~ \$0-outoscilator4;
#X obj 377 1175 s~ \$0-outoscilator5;
#X obj 1050 114 r~ \$0-outoscilator1;
#X obj 1050 140 r~ \$0-outoscilator2;
#X obj 1050 170 r~ \$0-outoscilator3;
#X obj 1050 200 r~ \$0-outoscilator4;
#X obj 1050 225 r~ \$0-outoscilator5;
#X obj 610 80 bng 15 250 50 0 empty empty empty 17 7 0 10 #fcfcfc #000000
#000000;
#X obj 610 50 loadbang;
#X text 470 50 a MIDI note;
#X floatatom 724 1100 5 0 0 0 HARM #0-NRO6 -, f 5;
#X obj 693 1070 adsr 0.6 200 300 70 900;
#X msg 680 1018 0;
#X floatatom 746 976 5 0 0 0 A #0-A6 -, f 5;
#X floatatom 774 1001 5 0 0 0 D #0-D6 -, f 5;
#X floatatom 799 1022 5 0 0 0 S #0-S6 -, f 5;
#X floatatom 823 1041 5 0 0 0 R #0-R6 -, f 5;
#X floatatom 720 1043 5 0 0 0 vol #0-vol6 -, f 5;
#X floatatom 765 1126 5 0 0 0 detune #0-DET6 -, f 5;
#X msg 713 1016 1;
#X obj 647 955 r \$0-noteon;
#X obj 644 980 r \$0-noteoff;
#X obj 675 1149 oscilator~;
#X obj 622 1106 r \$0-note;
#X obj 675 1172 s~ \$0-outoscilator6;
#X text 643 928 OSCILATOR 6;
#X floatatom 994 1094 5 0 0 0 HARM #0-NRO7 -, f 5;
#X obj 963 1064 adsr 0.6 200 300 70 900;
#X msg 950 1012 0;
#X floatatom 1016 970 5 0 0 0 A #0-A7 -, f 5;
#X floatatom 1044 995 5 0 0 0 D #0-D7 -, f 5;
#X floatatom 1069 1016 5 0 0 0 S #0-S7 -, f 5;
#X floatatom 1093 1035 5 0 0 0 R #0-R7 -, f 5;
#X floatatom 990 1037 5 0 0 0 vol #0-vol7 -, f 5;
#X floatatom 1035 1120 5 0 0 0 detune #0-DET7 -, f 5;
#X msg 983 1010 1;
#X obj 917 949 r \$0-noteon;
#X obj 914 974 r \$0-noteoff;
#X obj 945 1143 oscilator~;
#X obj 892 1100 r \$0-note;
#X obj 945 1166 s~ \$0-outoscilator7;
#X text 913 922 OSCILATOR 7;
#X obj 1050 250 r~ \$0-outoscilator6;
#X obj 1050 280 r~ \$0-outoscilator7;
#X connect 91 0 104 1;
#X connect 92 0 96 0;
#X connect 93 0 97 0;
#X connect 94 0 98 0;
#X connect 96 0 100 0;
#X connect 97 0 99 0;
#X connect 101 0 104 0;
#X connect 102 0 101 1;
#X connect 103 0 134 0;
#X connect 104 0 95 0;
#X connect 105 0 117 2;
#X connect 106 0 117 1;
#X connect 107 0 106 0;
#X connect 108 0 106 2;
#X connect 109 0 106 3;
#X connect 110 0 106 4;
#X connect 111 0 106 5;
#X connect 112 0 106 1;
#X connect 113 0 117 3;
#X connect 114 0 106 0;
#X connect 115 0 114 0;
#X connect 116 0 107 0;
#X connect 117 0 181 0;
#X connect 119 0 131 2;
#X connect 120 0 131 1;
#X connect 121 0 120 0;
#X connect 122 0 120 2;
#X connect 123 0 120 3;
#X connect 124 0 120 4;
#X connect 125 0 120 5;
#X connect 126 0 120 1;
#X connect 127 0 131 3;
#X connect 128 0 120 0;
#X connect 129 0 128 0;
#X connect 130 0 121 0;
#X connect 131 0 182 0;
#X connect 133 0 117 0;
#X connect 134 0 102 0;
#X connect 135 0 131 0;
#X connect 136 0 148 2;
#X connect 137 0 148 1;
#X connect 138 0 137 0;
#X connect 139 0 137 2;
#X connect 140 0 137 3;
#X connect 141 0 137 4;
#X connect 142 0 137 5;
#X connect 143 0 137 1;
#X connect 144 0 148 3;
#X connect 145 0 137 0;
#X connect 146 0 145 0;
#X connect 147 0 138 0;
#X connect 148 0 183 0;
#X connect 149 0 148 0;
#X connect 151 0 163 2;
#X connect 152 0 163 1;
#X connect 153 0 152 0;
#X connect 154 0 152 2;
#X connect 155 0 152 3;
#X connect 156 0 152 4;
#X connect 157 0 152 5;
#X connect 158 0 152 1;
#X connect 159 0 163 3;
#X connect 160 0 152 0;
#X connect 161 0 160 0;
#X connect 162 0 153 0;
#X connect 163 0 184 0;
#X connect 164 0 163 0;
#X connect 166 0 178 2;
#X connect 167 0 178 1;
#X connect 168 0 167 0;
#X connect 169 0 167 2;
#X connect 170 0 167 3;
#X connect 171 0 167 4;
#X connect 172 0 167 5;
#X connect 173 0 167 1;
#X connect 174 0 178 3;
#X connect 175 0 167 0;
#X connect 176 0 175 0;
#X connect 177 0 168 0;
#X connect 178 0 185 0;
#X connect 179 0 178 0;
#X connect 186 0 101 0;
#X connect 187 0 101 0;
#X connect 188 0 101 0;
#X connect 189 0 101 0;
#X connect 190 0 101 0;
#X connect 191 0 12 0;
#X connect 191 0 17 0;
#X connect 191 0 22 0;
#X connect 191 0 43 0;
#X connect 191 0 48 0;
#X connect 191 0 61 0;
#X connect 191 0 74 0;
#X connect 192 0 191 0;
#X connect 194 0 206 2;
#X connect 195 0 206 1;
#X connect 196 0 195 0;
#X connect 197 0 195 2;
#X connect 198 0 195 3;
#X connect 199 0 195 4;
#X connect 200 0 195 5;
#X connect 201 0 195 1;
#X connect 202 0 206 3;
#X connect 203 0 195 0;
#X connect 204 0 203 0;
#X connect 205 0 196 0;
#X connect 206 0 208 0;
#X connect 207 0 206 0;
#X connect 210 0 222 2;
#X connect 211 0 222 1;
#X connect 212 0 211 0;
#X connect 213 0 211 2;
#X connect 214 0 211 3;
#X connect 215 0 211 4;
#X connect 216 0 211 5;
#X connect 217 0 211 1;
#X connect 218 0 222 3;
#X connect 219 0 211 0;
#X connect 220 0 219 0;
#X connect 221 0 212 0;
#X connect 222 0 224 0;
#X connect 223 0 222 0;
#X connect 226 0 101 0;
#X connect 227 0 101 0;
#X coords 0 -1 1 1 594 400 1 285 114;
