#N canvas 2231 190 1522 762 12;
#X obj 105 302 phasor~;
#X obj 179 302 osc~;
#X obj 240 329 line~;
#X obj 240 304 pack 0 50;
#X obj 240 280 / 100;
#X obj 180 350 *~;
#X obj 105 376 +~;
#X obj 104 430 cos~;
#X text 20 300 Carrier;
#X text 20 320 Phase;
#X text 7 382 Modulation;
#X text 9 363 Phase;
#X text 10 434 waveform;
#X obj 30 130 nbx 5 14 -1e+37 1e+37 0 0 empty empty CARRIER\ (Hz) 0
-8 0 10 #fcfcfc #000000 #000000 0 256 0;
#X obj 30 165 nbx 5 14 -1e+37 1e+37 0 0 empty empty MODULATOR\ (Hz)
0 -8 0 10 #fcfcfc #000000 #000000 0 256 0;
#X obj 286 134 vsl 10 80 0 1 0 0 empty empty AMP -4 -14 0 10 #fcfcfc
#000000 #000000 0 1;
#X obj 30 205 nbx 5 14 -1e+37 1e+37 0 0 empty empty MOD\ INDEX\ (0/100)
0 -8 0 10 #fcfcfc #000000 #000000 0 256 0;
#X obj 210 445 line~;
#X obj 210 420 pack 0 50;
#X obj 103 467 *~;
#X text 59 17 FM Phase modulation;
#X obj 100 530 outlet~;
#X obj 146 164 tgl 15 0 empty empty MULT\ ON/OFF 17 7 0 10 #fcfcfc
#000000 #000000 0 1;
#X obj 500 300 spigot;
#X obj 500 370 *;
#X obj 146 204 hradio 15 0 0 8 empty empty MOD\ MULTIPLIER 0 -8 0 10
#fcfcfc #000000 #000000 0;
#X floatatom 500 420 5 0 0 0 - - -, f 5;
#X obj 450 320 bng 15 250 50 0 empty empty empty 17 7 0 10 #fcfcfc
#000000 #000000;
#X obj 40 50 inlet;
#X obj 100 500 lop~ 15000;
#X connect 0 0 6 0;
#X connect 1 0 5 0;
#X connect 2 0 5 1;
#X connect 3 0 2 0;
#X connect 4 0 3 0;
#X connect 5 0 6 1;
#X connect 6 0 7 0;
#X connect 7 0 19 0;
#X connect 13 0 0 0;
#X connect 13 0 23 0;
#X connect 14 0 1 0;
#X connect 15 0 18 0;
#X connect 16 0 4 0;
#X connect 17 0 19 1;
#X connect 18 0 17 0;
#X connect 19 0 29 0;
#X connect 22 0 23 1;
#X connect 23 0 24 0;
#X connect 24 0 14 0;
#X connect 24 0 26 0;
#X connect 25 0 24 1;
#X connect 25 0 27 0;
#X connect 27 0 24 0;
#X connect 28 0 13 0;
#X connect 29 0 21 0;
#X coords 0 -1 1 1 292 144 1 22 89;
