#N canvas 399 308 556 418 10;
#X obj 119 262 *~;
#X obj 120 139 osc~;
#X floatatom 121 42 5 0 0 0 - - -, f 5;
#X obj 225 93 bng 15 250 50 0 empty empty empty 17 7 0 10 -262144 -1
-1;
#X obj 121 21 mtof;
#X floatatom 150 73 5 0 0 0 - - -, f 5;
#X obj 121 73 * \$1;
#X obj 120 98 + \$2;
#X floatatom 151 98 5 -40 40 0 - - -, f 5;
#X floatatom 121 119 5 0 0 0 - - -, f 5;
#X obj 118 322 outlet~;
#X obj 121 -12 inlet;
#X obj 167 -11 inlet;
#X obj 209 -12 inlet;
#X text 36 37 frec;
#X text 32 73 Nro armonico;
#X text 33 112 detune;
#X text 52 326 Salida;
#X obj 163 209 inlet~;
#X text 209 206 Envolvente;
#X connect 0 0 10 0;
#X connect 1 0 0 0;
#X connect 2 0 6 0;
#X connect 3 0 2 0;
#X connect 4 0 2 0;
#X connect 5 0 6 1;
#X connect 5 0 3 0;
#X connect 6 0 7 0;
#X connect 7 0 9 0;
#X connect 8 0 7 1;
#X connect 8 0 3 0;
#X connect 9 0 1 0;
#X connect 11 0 4 0;
#X connect 12 0 5 0;
#X connect 13 0 8 0;
#X connect 18 0 0 1;
