#N canvas 273 225 954 411 12;
#X obj 190 230 *~;
#X obj 80 170 readsf~;
#X obj 211 190 line~;
#X obj 30 30 inlet;
#X obj 147 33 inlet;
#X obj 260 30 inlet;
#X obj 160 110 spigot;
#X obj 190 280 outlet~;
#X text 320 40 > 1 => loop | 0 => no loop;
#X msg 30 110 open \$1 \, 1;
#X obj 490 100 vsl 18 59 0 1 0 0 empty empty empty 0 -9 0 10 #fcfcfc
#000000 #000000 0 1;
#X obj 410 110 bng 42 250 50 0 empty empty empty 17 7 0 10 #fcfcfc
#000000 #000000;
#X obj 550 220 tgl 44 0 empty empty empty 17 7 0 10 #fcfcfc #000000
#000000 0 1;
#X obj 360 320 openpanel;
#X obj 310 280 del 20;
#X obj 30 230 print opening;
#X obj 210 170 pack 0 50;
#X obj 40 310 outlet;
#X obj 40 280 bng 15 250 50 0 empty empty empty 17 7 0 10 #fcfcfc #000000
#000000;
#X obj 110 310 outlet;
#X obj 110 280 bng 15 250 50 0 empty empty empty 17 7 0 10 #fcfcfc
#000000 #000000;
#X msg 390 280 symbol sounds;
#X text 398 168 open file;
#X text 486 168 amp;
#X connect 0 0 7 0;
#X connect 1 0 0 0;
#X connect 1 1 20 0;
#X connect 2 0 0 1;
#X connect 3 0 9 0;
#X connect 4 0 16 0;
#X connect 5 0 6 1;
#X connect 9 0 1 0;
#X connect 9 0 15 0;
#X connect 9 0 18 0;
#X connect 10 0 16 0;
#X connect 11 0 21 0;
#X connect 11 0 14 0;
#X connect 13 0 9 0;
#X connect 16 0 2 0;
#X connect 18 0 17 0;
#X connect 20 0 19 0;
#X connect 21 0 13 0;
#X coords 0 -1 1 1 151 94 2 384 94;
