#N canvas 653 887 954 411 12;
#X obj 190 230 *~;
#X obj 80 170 readsf~;
#X obj 211 190 line~;
#X obj 210 170 pack 0 100;
#X obj 30 70 bng 20 250 50 0 empty empty empty 17 7 0 10 #fcfcfc #000000
#000000;
#X obj 30 170 print;
#X obj 30 30 inlet;
#X obj 147 33 inlet;
#X obj 260 30 inlet;
#X obj 160 110 spigot;
#X obj 190 280 outlet~;
#X text 320 40 > 1 => loop | 0 => no loop;
#X msg 30 110 open \$1 \, 1;
#X connect 0 0 10 0;
#X connect 1 0 0 0;
#X connect 1 1 9 0;
#X connect 2 0 0 1;
#X connect 3 0 2 0;
#X connect 4 0 12 0;
#X connect 6 0 4 0;
#X connect 7 0 3 0;
#X connect 8 0 9 1;
#X connect 9 0 12 0;
#X connect 12 0 5 0;
#X connect 12 0 1 0;
