#N canvas -8 -8 1538 778 10;
#X obj 72 185 f;
#X msg 72 214 1 \$1;
#X obj 70 150 inlet;
#X obj 22 305 outlet~;
#X obj 132 186 f;
#X obj 130 150 inlet;
#X msg 132 215 0 \$1;
#X obj 200 215 loadbang;
#X obj 72 248 line~;
#X msg 200 245 500;
#X obj 22 275 *~;
#X obj 22 20 inlet~;
#X obj 60 60 cnv 15 220 78 empty empty a/d 20 12 0 14 #ffffff #00ff00
0;
#X obj 70 110 nbx 7 15 -1e+37 1e+37 0 0 empty empty empty 0 -8 0 10
#fcfcfc #000000 #000000 0 256 0;
#X obj 200 215 loadbang;
#X text 174 93 decay (ms);
#X obj 170 110 nbx 7 15 -1e+37 1e+37 0 0 empty empty empty 0 -8 0 10
#fcfcfc #000000 #000000 0 256 0;
#X text 70 93 attack (ms);
#X connect 0 0 1 0;
#X connect 1 0 8 0;
#X connect 2 0 0 0;
#X connect 4 0 6 0;
#X connect 5 0 4 0;
#X connect 6 0 8 0;
#X connect 7 0 9 0;
#X connect 8 0 10 1;
#X connect 9 0 4 1;
#X connect 9 0 0 1;
#X connect 10 0 3 0;
#X connect 11 0 10 0;
#X connect 13 0 0 1;
#X connect 16 0 4 1;
#X coords 0 -1 1 1 190 52 1 63 80;
