#N canvas 828 252 362 232 10;
#X obj 72 80 f;
#X msg 72 109 1 \$1;
#X obj 72 50 bng 15 250 50 0 empty empty empty 17 7 0 10 #fcfcfc #000000
#000000;
#X obj 72 20 inlet;
#X obj 22 200 outlet~;
#X obj 132 81 f;
#X obj 132 51 bng 15 250 50 0 empty empty empty 17 7 0 10 #fcfcfc #000000
#000000;
#X obj 132 21 inlet;
#X msg 132 110 0 \$1;
#X obj 282 20 loadbang;
#X obj 182 19 inlet;
#X obj 242 20 inlet;
#X obj 72 143 line~;
#X msg 282 50 500;
#X obj 22 170 *~;
#X obj 22 20 inlet~;
#X connect 0 0 1 0;
#X connect 1 0 12 0;
#X connect 2 0 0 0;
#X connect 3 0 2 0;
#X connect 5 0 8 0;
#X connect 6 0 5 0;
#X connect 7 0 6 0;
#X connect 8 0 12 0;
#X connect 9 0 13 0;
#X connect 10 0 0 1;
#X connect 11 0 5 1;
#X connect 12 0 14 1;
#X connect 13 0 5 1;
#X connect 13 0 0 1;
#X connect 14 0 4 0;
#X connect 15 0 14 0;
