#N canvas 570 425 1350 664 10;
#X obj 248 117 vsl 10 80 0.01 20 0 0 empty empty Q 0 -9 0 10 #fcfcfc
#000000 #000000 0 1;
#X obj 108 197 hsl 80 10 0 20000 0 0 empty empty FREQ\ (Hz) -2 -8 0
10 #fcfcfc #000000 #000000 0 1;
#X obj 520 40 inlet~;
#X obj 580 40 inlet;
#X obj 630 40 inlet;
#X obj 380 200 outlet~;
#X obj 380 140 bp~;
#X obj 340 60 line;
#X obj 420 60 line;
#X obj 420 40 pack 0 50;
#X obj 340 40 pack 0 50;
#X obj 132 209 nbx 6 14 0 20000 0 0 empty empty empty 0 -8 0 10 #fcfcfc
#000000 #000000 0 256 3;
#X obj 229 209 nbx 6 14 0 20000 0 0 empty empty empty 0 -8 0 10 #fcfcfc
#000000 #000000 0 256 3;
#X connect 0 0 9 0;
#X connect 0 0 12 0;
#X connect 1 0 10 0;
#X connect 1 0 11 0;
#X connect 2 0 6 0;
#X connect 3 0 1 0;
#X connect 4 0 0 0;
#X connect 6 0 5 0;
#X connect 7 0 6 1;
#X connect 8 0 6 2;
#X connect 9 0 8 0;
#X connect 10 0 7 0;
#X coords 0 -1 1 1 198 128 1 100 100;
