#N canvas -1624 -235 1350 664 10;
#X obj 350 170 FIR~;
#X obj 110 260 soundfiler;
#N canvas 0 0 450 300 (subpatch) 0;
#X array \$0-arr 20529 float 2 black #00ff00;
#X coords 0 1 20529 -1 130 70 1;
#X restore 105 323 graph;
#X obj 550 380 gainvu~;
#X obj 338 323 vu 10 80 empty empty -1 -8 0 10 #404040 #000000 1 0
;
#X obj 311 323 vsl 10 80 0 128 0 0 empty empty empty 0 -9 0 10 #fcfcfc
#000000 #000000 4663 1;
#X obj 349 63 loadbang;
#X obj 250 630 rev2~;
#X obj 406 767 outlet~;
#X obj 79 427 vsl 10 80 0 100 0 0 empty empty LEVEL 0 -9 0 10 #fcfcfc
#000000 #000000 6800 1;
#X obj 119 427 vsl 10 80 0 100 0 0 empty empty FB 0 -9 0 10 #fcfcfc
#000000 #000000 3450 1;
#X obj 188 496 nbx 5 14 -1e+37 1e+37 0 0 empty empty CROSSOVER\ (Hz)
0 -8 0 10 #fcfcfc #000000 #000000 12000 256 0;
#X obj 159 427 vsl 10 80 0 100 0 0 empty empty HF\ DAMPING 0 -9 0 10
#fcfcfc #000000 #000000 6600 1;
#X obj 80 70 inlet~;
#X obj 77 351 bng 15 250 50 0 empty empty empty 17 7 0 10 #fcfcfc #000000
#000000;
#X obj 90 195 openpanel;
#X msg 110 240 read -resize \$1 \$0-arr;
#X obj 110 220 symbol;
#X obj 406 720 *~;
#X obj 421 698 line~;
#X obj 406 744 *~ 0.5;
#X obj 335 769 outlet~;
#X obj 335 722 *~;
#X obj 350 700 line~;
#X obj 335 746 *~ 0.5;
#X obj 255 770 outlet~;
#X obj 255 723 *~;
#X obj 270 701 line~;
#X obj 255 747 *~ 0.5;
#X obj 184 772 outlet~;
#X obj 184 725 *~;
#X obj 199 703 line~;
#X obj 184 749 *~ 0.5;
#X obj 613 566 inlet;
#X obj 613 592 / 100;
#X obj 660 566 inlet;
#X obj 660 592 / 100;
#X obj 733 566 inlet;
#X obj 733 592 / 100;
#X obj 780 566 inlet;
#X obj 780 592 / 100;
#X obj 281 428 vsl 10 80 0 100 0 0 empty empty LEVEL 0 -9 0 10 #fcfcfc
#000000 #000000 0 1;
#X obj 50 150 getdir;
#X msg 50 169 symbol \$1/irs;
#X msg 320 110 set \$0-arr \$1;
#X obj 252 329 vradio 10 0 0 7 empty empty SIZE 0 -8 0 10 #fcfcfc #000000
#000000 5;
#X msg 565 150 256;
#X msg 566 178 256;
#X msg 567 208 256;
#X msg 565 150 256;
#X msg 566 178 512;
#X msg 567 208 1024;
#X msg 566 236 2048;
#X msg 567 265 4096;
#X obj 419 215 route 0 1 2 3 4 5 6;
#X msg 568 295 8192;
#X msg 566 323 16384;
#X floatatom 692 195 5 0 0 0 - - -, f 5;
#X text 554 100 convolution size;
#X obj 199 682 pack 0 10;
#X obj 270 680 pack 0 10;
#X obj 350 679 pack 0 10;
#X obj 421 677 pack 0 10;
#X obj 907 565 inlet;
#X msg 716 339 10;
#X msg 747 339 20;
#X msg 782 339 40;
#X msg 815 339 80;
#X connect 0 0 3 0;
#X connect 3 0 7 0;
#X connect 3 2 4 1;
#X connect 5 0 3 1;
#X connect 6 0 44 0;
#X connect 7 0 30 0;
#X connect 7 1 26 0;
#X connect 7 2 22 0;
#X connect 7 3 18 0;
#X connect 9 0 7 1;
#X connect 10 0 7 2;
#X connect 11 0 7 3;
#X connect 12 0 7 4;
#X connect 13 0 0 0;
#X connect 14 0 42 0;
#X connect 15 0 17 0;
#X connect 16 0 1 0;
#X connect 17 0 16 0;
#X connect 18 0 20 0;
#X connect 19 0 18 1;
#X connect 20 0 8 0;
#X connect 22 0 24 0;
#X connect 23 0 22 1;
#X connect 24 0 21 0;
#X connect 26 0 28 0;
#X connect 27 0 26 1;
#X connect 28 0 25 0;
#X connect 30 0 32 0;
#X connect 31 0 30 1;
#X connect 32 0 29 0;
#X connect 33 0 34 0;
#X connect 34 0 59 0;
#X connect 35 0 36 0;
#X connect 36 0 60 0;
#X connect 37 0 38 0;
#X connect 38 0 61 0;
#X connect 39 0 40 0;
#X connect 40 0 62 0;
#X connect 41 0 34 0;
#X connect 41 0 36 0;
#X connect 41 0 38 0;
#X connect 41 0 40 0;
#X connect 42 0 43 0;
#X connect 43 0 15 0;
#X connect 44 0 0 0;
#X connect 45 0 54 0;
#X connect 49 0 57 0;
#X connect 50 0 57 0;
#X connect 51 0 57 0;
#X connect 52 0 57 0;
#X connect 53 0 57 0;
#X connect 54 0 49 0;
#X connect 54 1 50 0;
#X connect 54 2 51 0;
#X connect 54 3 52 0;
#X connect 54 4 53 0;
#X connect 54 5 55 0;
#X connect 54 6 56 0;
#X connect 55 0 57 0;
#X connect 56 0 57 0;
#X connect 57 0 44 0;
#X connect 59 0 31 0;
#X connect 60 0 27 0;
#X connect 61 0 23 0;
#X connect 62 0 19 0;
#X connect 63 0 5 0;
#X connect 64 0 3 2;
#X connect 65 0 3 2;
#X connect 66 0 3 2;
#X connect 67 0 3 2;
#X coords 0 -1 1 1 325 226 1 62 292;
