#N canvas 252 49 845 566 10;
#X obj 247 337 freeverb~;
#X obj 290 80 loadbang;
#X msg 217 106 print;
#X obj 110 390 *~;
#X obj 120 330 line~;
#X obj 572 321 pvu~;
#X obj 660 270 vu 15 120 empty empty -1 -8 0 10 #404040 #000000 1 0
;
#X obj 50 80 inlet~;
#X obj 300 461 outlet~;
#X obj 103 456 outlet~;
#X obj 110 80 inlet;
#X obj 295 393 *~;
#X obj 310 371 line~;
#X obj 170 80 inlet;
#X obj 109 421 *~ 0.5;
#X floatatom 440 290 5 0 0 0 - - -, f 5;
#X floatatom 360 290 5 0 0 0 - - -, f 5;
#X obj 300 430 *~ 0.5;
#X obj 110 110 / 100;
#X obj 170 110 / 100;
#X obj 120 310 pack 0 20;
#X obj 310 350 pack 0 20;
#X msg 250 150 wet 0.5 \, damping 0.1 \, dry 0 \, roomsize 0.48 \,
width 0.5;
#X connect 0 0 3 0;
#X connect 0 1 11 0;
#X connect 1 0 22 0;
#X connect 2 0 0 0;
#X connect 3 0 14 0;
#X connect 4 0 3 1;
#X connect 5 0 6 1;
#X connect 7 0 0 0;
#X connect 7 0 0 1;
#X connect 10 0 18 0;
#X connect 11 0 17 0;
#X connect 12 0 11 1;
#X connect 13 0 19 0;
#X connect 14 0 9 0;
#X connect 17 0 8 0;
#X connect 18 0 16 0;
#X connect 18 0 20 0;
#X connect 19 0 15 0;
#X connect 19 0 21 0;
#X connect 20 0 4 0;
#X connect 21 0 12 0;
#X connect 22 0 0 0;
