#N canvas 276 37 845 591 10;
#X obj 247 337 freeverb~;
#X obj 250 30 loadbang;
#X msg 217 106 print;
#X obj 110 390 *~;
#X obj 120 330 line~;
#X obj 50 80 inlet~;
#X obj 300 461 outlet~;
#X obj 103 456 outlet~;
#X obj 110 80 inlet;
#X obj 295 393 *~;
#X obj 310 371 line~;
#X obj 170 80 inlet;
#X obj 109 421 *~ 0.5;
#X obj 300 430 *~ 0.5;
#X obj 110 110 / 100;
#X obj 170 110 / 100;
#X obj 120 310 pack 0 20;
#X obj 310 350 pack 0 20;
#X obj 694 280 tgl 15 0 empty empty FREEZE 17 7 0 10 #fcfcfc #000000
#000000 0 1;
#X obj 668 251 vsl 10 80 0 127 0 0 empty empty amp 0 -9 0 10 #fcfcfc
#000000 #000000 0 1;
#X msg 340 260 freeze \$1;
#X obj 700 64 inlet;
#X msg 590 120 roomsize \$1;
#X obj 580 20 inlet;
#X obj 624 251 vsl 10 80 0 0.9 0 0 empty empty room 0 -9 0 10 #fcfcfc
#000000 #000000 5400 1;
#X msg 490 120 damping \$1;
#X obj 577 251 vsl 10 80 0 0.9 0 0 empty empty damping 0 -9 0 10 #fcfcfc
#000000 #000000 1150 1;
#X obj 640 20 inlet;
#X msg 249 69 wet 0.9 \, damping 0.1 \, dry 0 \, roomsize 0.65 \, width
0;
#X connect 0 0 3 0;
#X connect 0 1 9 0;
#X connect 1 0 28 0;
#X connect 2 0 0 0;
#X connect 3 0 12 0;
#X connect 4 0 3 1;
#X connect 5 0 0 0;
#X connect 5 0 0 1;
#X connect 8 0 14 0;
#X connect 9 0 13 0;
#X connect 10 0 9 1;
#X connect 11 0 15 0;
#X connect 12 0 7 0;
#X connect 13 0 6 0;
#X connect 14 0 16 0;
#X connect 15 0 17 0;
#X connect 16 0 4 0;
#X connect 17 0 10 0;
#X connect 18 0 20 0;
#X connect 19 0 15 0;
#X connect 19 0 14 0;
#X connect 20 0 0 0;
#X connect 21 0 18 0;
#X connect 22 0 0 0;
#X connect 23 0 25 0;
#X connect 23 0 26 0;
#X connect 24 0 22 0;
#X connect 25 0 0 0;
#X connect 26 0 25 0;
#X connect 27 0 22 0;
#X connect 27 0 24 0;
#X connect 28 0 0 0;
#X coords 0 -1 1 1 190 138 1 567 207;
