#N canvas 483 0 793 664 10;
#X msg 280 580 start;
#X msg 330 580 stop;
#X obj -360 -250 bng 35 250 50 0 empty empty empty 17 7 0 10 #fcfcfc
#000000 #000000;
#X msg 280 550 open recordings/ATC_pan_pan.wav;
#X obj 410 -100 ../generators/soundfile~;
#X obj 40 190 ../processors/rev~;
#X obj -110 190 ../spaces/stereo_lr_2~;
#X obj -64 256 ../mixers/stereo_lr_rev~;
#X obj 90 110 ../controllers/simple_OSC_quad;
#X obj 216 256 ../mixers/stereo_lr_rev~;
#X obj 330 190 ../processors/rev~;
#X obj 180 190 ../spaces/stereo_lr_2~;
#X obj 160 610 writesf~ 4;
#X obj -130 -20 ../generators/soundfile~;
#X obj 570 110 delay~ 4410;
#X obj 490 130 *~ 0.5;
#X obj 430 130 *~ 0.5;
#X obj 300 110 *~ 1;
#X obj -110 560 *~, f 2;
#X obj -96 535 tgl 15 0 empty empty empty 17 7 0 10 #fcfcfc #000000
#000000 0 1;
#X obj -170 510 phasor~ 440;
#X obj -80 560 *~, f 2;
#X obj -66 535 tgl 15 0 empty empty empty 17 7 0 10 #fcfcfc #000000
#000000 0 1;
#X obj -50 560 *~, f 2;
#X obj -36 535 tgl 15 0 empty empty empty 17 7 0 10 #fcfcfc #000000
#000000 0 1;
#X obj -20 560 *~, f 2;
#X obj -6 535 tgl 15 0 empty empty empty 17 7 0 10 #fcfcfc #000000
#000000 0 1;
#X obj 126 516 dac~ 1 2 3 4;
#X floatatom 510 280 5 0 0 0 - - -, f 5;
#X msg 40 -160 C:UserscasajDocumentsUNTREFTESIS21atr_movimiento.wav
;
#X connect 0 0 12 0;
#X connect 1 0 12 0;
#X connect 3 0 12 0;
#X connect 4 2 14 0;
#X connect 4 2 16 0;
#X connect 5 0 7 3;
#X connect 5 1 7 4;
#X connect 6 0 7 0;
#X connect 6 1 7 1;
#X connect 7 0 12 0;
#X connect 7 0 27 0;
#X connect 7 1 12 1;
#X connect 7 1 27 1;
#X connect 8 3 6 1;
#X connect 8 4 6 2;
#X connect 8 5 5 1;
#X connect 8 6 5 2;
#X connect 8 7 11 1;
#X connect 8 8 11 2;
#X connect 8 9 10 1;
#X connect 8 10 10 2;
#X connect 9 0 12 2;
#X connect 9 1 12 3;
#X connect 10 0 9 3;
#X connect 10 1 9 4;
#X connect 11 0 9 0;
#X connect 11 1 9 1;
#X connect 13 2 6 0;
#X connect 13 2 5 0;
#X connect 14 0 15 0;
#X connect 15 0 17 0;
#X connect 16 0 17 0;
#X connect 17 0 11 0;
#X connect 17 0 10 0;
#X connect 18 0 27 0;
#X connect 19 0 18 1;
#X connect 20 0 18 0;
#X connect 20 0 21 0;
#X connect 20 0 23 0;
#X connect 20 0 25 0;
#X connect 21 0 27 1;
#X connect 22 0 21 1;
#X connect 23 0 27 2;
#X connect 24 0 23 1;
#X connect 25 0 27 3;
#X connect 26 0 25 1;
