#N canvas 181 34 1024 579 10;
#X obj 257 360 textfile;
#X msg 202 317 bang;
#X msg 423 260 rewind, f 8;
#X obj 81 255 metro 100;
#X obj 167 433 unpack i i i;
#X floatatom 167 457 5 0 0 0 - - -, f 5;
#X msg 359 282 clear;
#X floatatom 207 512 5 0 0 0 - - -, f 5;
#X obj 348 247 bng 15 250 50 0 empty empty empty 17 7 0 10 -262144
-1 -1;
#X obj 116 538 tabread R;
#X obj 28 541 tabread L;
#X obj 281 424 print angle - distance:;
#X obj 405 484 tabread reverb;
#X obj 257 491 tabread distancia;
#X obj 113 782 *~;
#X obj 225 783 *~;
#X obj 159 878 dac~;
#X floatatom 253 589 5 0 0 0 - - -, f 5;
#X obj 160 661 lop~ 8000;
#X obj 161 729 *~;
#X obj 29 584 line~;
#X obj 115 579 line~;
#X obj 281 400 spigot;
#X obj 352 361 tgl 15 0 empty empty empty 17 7 0 10 -262144 -1 -1 0
1;
#X obj 221 843 pvu~;
#X obj 252 844 s vu_r;
#X obj 28 855 s vu_l;
#X obj 73 858 pvu~;
#X obj 245 554 expr 1 - $f1;
#X obj 385 574 expr 10000 - ((1+$f1) * 3000);
#X obj 385 616 line, f 6;
#X msg 434 185 clear \, read traj/\$1 cr \, rewind;
#X obj 115 559 pack 0 100;
#X obj 28 564 pack 0 100;
#X obj 385 595 pack 0 250;
#X obj 477 214 print;
#X obj 165 780 rev~;
#X obj 280 785 *~;
#X obj 161 693 *~ 0.6;
#X obj 51 369 s dist;
#X obj 50 399 s ang;
#X msg 677 343 open sound/piano.wav \, 1;
#X obj 570 485 *~;
#X obj 622 348 bng 15 250 50 0 empty empty empty 17 7 0 10 -262144
-1 -1;
#X obj 570 403 readsf~;
#X obj 434 157 r traj;
#X obj 132 149 r tempo;
#X obj 56 168 r tempo_on;
#X msg 608 300 open sound/harp.wav \, 1;
#X obj 211 161 bng 15 250 50 0 empty empty empty 17 7 0 10 -262144
-1 -1;
#X floatatom 181 272 5 0 0 0 - - -, f 5;
#X obj 133 228 expr 1000/ (($f1 * ($f2 + 1))/60);
#X obj 294 171 r tempo_mult;
#X msg 606 272 open sound/pulse.wav \, 1;
#X obj 570 506 s~ input;
#X obj 160 629 r~ input;
#X obj 243 638 line~;
#X obj 242 618 pack 0 100;
#X obj 628 427 r input_amp;
#X obj 629 469 line~;
#X obj 628 449 pack 0 100;
#X msg 607 239 open sound/cello.wav \, 1;
#X obj 368 732 readsf~;
#X obj 535 716 r thru_input_amp;
#X obj 535 763 line~;
#X obj 534 743 pack 0 100;
#X obj 120 838 *~ 0.5;
#X obj 174 838 *~ 0.5;
#X obj 460 639 bng 15 250 50 0 empty empty empty 17 7 0 10 -262144
-1 -1;
#X obj 463 705 print;
#X msg 462 684 open sound/cello.wav \, 1;
#X obj 464 352 visual;
#X connect 0 0 4 0;
#X connect 0 0 22 0;
#X connect 0 1 8 0;
#X connect 1 0 0 0;
#X connect 2 0 0 0;
#X connect 3 0 1 0;
#X connect 4 0 5 0;
#X connect 4 0 40 0;
#X connect 4 1 7 0;
#X connect 4 1 12 0;
#X connect 4 1 39 0;
#X connect 5 0 10 0;
#X connect 5 0 9 0;
#X connect 6 0 0 0;
#X connect 7 0 13 0;
#X connect 8 0 2 0;
#X connect 9 0 32 0;
#X connect 10 0 33 0;
#X connect 12 0 36 1;
#X connect 13 0 28 0;
#X connect 13 0 29 0;
#X connect 14 0 66 0;
#X connect 15 0 67 0;
#X connect 18 0 38 0;
#X connect 19 0 14 0;
#X connect 19 0 15 0;
#X connect 19 0 36 0;
#X connect 20 0 14 1;
#X connect 21 0 15 1;
#X connect 22 0 11 0;
#X connect 23 0 22 1;
#X connect 24 0 25 0;
#X connect 27 0 26 0;
#X connect 28 0 17 0;
#X connect 28 0 57 0;
#X connect 29 0 34 0;
#X connect 30 0 18 1;
#X connect 31 0 0 0;
#X connect 31 0 35 0;
#X connect 32 0 21 0;
#X connect 33 0 20 0;
#X connect 34 0 30 0;
#X connect 36 0 14 0;
#X connect 36 1 15 0;
#X connect 37 0 66 0;
#X connect 37 0 67 0;
#X connect 38 0 19 0;
#X connect 41 0 44 0;
#X connect 42 0 54 0;
#X connect 43 0 41 0;
#X connect 44 0 42 0;
#X connect 44 1 43 0;
#X connect 45 0 31 0;
#X connect 46 0 49 0;
#X connect 46 0 51 0;
#X connect 47 0 3 0;
#X connect 48 0 44 0;
#X connect 49 0 51 0;
#X connect 51 0 3 1;
#X connect 51 0 50 0;
#X connect 52 0 51 1;
#X connect 52 0 49 0;
#X connect 53 0 44 0;
#X connect 55 0 18 0;
#X connect 56 0 19 1;
#X connect 57 0 56 0;
#X connect 58 0 60 0;
#X connect 59 0 42 1;
#X connect 60 0 59 0;
#X connect 61 0 44 0;
#X connect 62 0 37 0;
#X connect 62 1 68 0;
#X connect 63 0 65 0;
#X connect 63 0 64 0;
#X connect 64 0 37 1;
#X connect 65 0 64 0;
#X connect 66 0 27 0;
#X connect 66 0 16 0;
#X connect 67 0 24 0;
#X connect 67 0 16 1;
#X connect 68 0 70 0;
#X connect 70 0 69 0;
#X connect 70 0 62 0;
