#N canvas 885 621 812 665 10;
#X obj 167 433 unpack i i i;
#X floatatom 167 457 5 0 0 0 - - -, f 5;
#X floatatom 207 512 5 0 0 0 - - -, f 5;
#X obj 116 538 tabread R;
#X obj 28 541 tabread L;
#X obj 405 484 tabread reverb;
#X obj 257 491 tabread distancia;
#X obj 113 782 *~;
#X obj 225 783 *~;
#X obj 159 878 dac~;
#X floatatom 253 589 5 0 0 0 - - -, f 5;
#X obj 160 661 lop~ 8000;
#X obj 161 729 *~;
#X obj 29 584 line~;
#X obj 115 579 line~;
#X obj 221 843 pvu~;
#X obj 252 844 s vu_r;
#X obj 28 855 s vu_l;
#X obj 73 858 pvu~;
#X obj 245 554 expr 1 - $f1;
#X obj 385 574 expr 10000 - ((1+$f1) * 3000);
#X obj 385 616 line, f 6;
#X obj 115 559 pack 0 100;
#X obj 28 564 pack 0 100;
#X obj 385 595 pack 0 250;
#X obj 165 780 rev~;
#X obj 161 693 *~ 0.6;
#X obj 51 369 s dist;
#X obj 50 399 s ang;
#X obj 160 629 r~ input;
#X obj 243 638 line~;
#X obj 242 618 pack 0 100;
#X obj 120 838 *~ 0.5;
#X obj 174 838 *~ 0.5;
#X obj 390 390;
#X connect 0 0 1 0;
#X connect 0 0 28 0;
#X connect 0 1 2 0;
#X connect 0 1 5 0;
#X connect 0 1 27 0;
#X connect 1 0 4 0;
#X connect 1 0 3 0;
#X connect 2 0 6 0;
#X connect 3 0 22 0;
#X connect 4 0 23 0;
#X connect 5 0 25 1;
#X connect 6 0 19 0;
#X connect 6 0 20 0;
#X connect 7 0 32 0;
#X connect 8 0 33 0;
#X connect 11 0 26 0;
#X connect 12 0 7 0;
#X connect 12 0 8 0;
#X connect 12 0 25 0;
#X connect 13 0 7 1;
#X connect 14 0 8 1;
#X connect 15 0 16 0;
#X connect 18 0 17 0;
#X connect 19 0 10 0;
#X connect 19 0 31 0;
#X connect 20 0 24 0;
#X connect 21 0 11 1;
#X connect 22 0 14 0;
#X connect 23 0 13 0;
#X connect 24 0 21 0;
#X connect 25 0 7 0;
#X connect 25 1 8 0;
#X connect 26 0 12 0;
#X connect 29 0 11 0;
#X connect 30 0 12 1;
#X connect 31 0 30 0;
#X connect 32 0 18 0;
#X connect 32 0 9 0;
#X connect 33 0 15 0;
#X connect 33 0 9 1;
