#N canvas -1659 -225 667 664 10;
#X obj 170 60 controllers/simple_OSC;
#X obj 70 510 writesf~ 2;
#X msg 210 470 start;
#X msg 260 470 stop;
#X obj 780 -210 vsl 15 128 0 1 0 0 empty empty empty 0 -9 0 10 #fcfcfc
#000000 #000000 0 1;
#X obj 710 -50 generators/soundfile~;
#X obj 660 -130 bng 15 250 50 0 empty empty empty 17 7 0 10 #fcfcfc
#000000 #000000;
#X obj 870 -120 tgl 15 0 empty empty empty 17 7 0 10 #fcfcfc #000000
#000000 0 1;
#X obj 690 -110 openpanel;
#X obj 730 50 processors/freeze;
#X obj 790 10 bng 15 250 50 0 empty empty empty 17 7 0 10 #fcfcfc #000000
#000000;
#X obj 850 0 vsl 15 128 0 127 0 0 empty empty empty 0 -9 0 10 #fcfcfc
#000000 #000000 0 1;
#X floatatom 720 240 5 0 0 0 - - -, f 5;
#X obj 640 190 expr (2-$f1)*100;
#X obj 635 461 line~;
#X obj 840 400 vsl 15 128 0 127 0 0 empty empty empty 0 -9 0 10 #fcfcfc
#000000 #000000 0 1;
#X obj 580 470 *~;
#X obj 613 526 bp~;
#X floatatom 670 530 5 0 0 0 - - -, f 5;
#X floatatom 720 540 5 0 0 0 - - -, f 5;
#X obj 1019 471 / 127;
#X floatatom 860 550 5 0 0 0 - - -, f 5;
#X floatatom 760 320 5 0 0 0 - - -, f 5;
#X obj 600 420 pack 0 25;
#X obj 984 127 line;
#X obj 983 87 pack 0 100;
#X obj 600 320 expr 210-$f1;
#X obj 70 109 spaces/stereo_lr_2~;
#X obj 220 109 processors/rev~;
#X obj 100 380 dac~;
#X obj 60 -240 tgl 15 0 empty empty empty 17 7 0 10 #fcfcfc #000000
#000000 1 1;
#X msg 210 510 open recordings/low_low.wav;
#X obj 70 159 mixers/stereo_lr_rev~;
#X obj 10 -125 osc~;
#X obj 10 -165 * 3.1;
#X obj -40 -125 osc~;
#X obj -80 -125 osc~;
#X obj -40 -165 * 5.05;
#X obj -80 -165 * 6.9;
#X text -130 -260 additive;
#X obj -125 -125 osc~;
#X obj -125 -165 * 9.06;
#X obj -170 -125 osc~;
#X obj -170 -165 * 11.2;
#X obj 70 -50 processors/atack_decay~;
#X obj 50 -125 osc~;
#X floatatom 80 -200 5 0 0 0 - - -, f 5;
#X obj 160 -170 metro 300;
#X obj -170 -70 *~ 0.3;
#X obj 70 20 bp~ 1000 5;
#X obj -170 -30 processors/atack_decay~;
#X obj 230 -170 metro 400;
#X obj -50 -230 random 8000;
#X obj -50 -250 metro 30;
#X obj 280 -210 hsl 128 15 0 127 0 0 empty empty empty -2 -8 0 10 #fcfcfc
#000000 #000000 6600 1;
#X obj 280 10 nbx 8 14 100 4000 0 1 empty empty freq 0 -8 0 10 #fcfcfc
#000000 #000000 2279 256 0;
#X obj 380 10 nbx 5 14 0 10 0 0 empty empty Q 0 -8 0 10 #fcfcfc #000000
#000000 10 256 0;
#X obj -200 -270 bng 35 250 50 0 empty empty empty 17 7 0 10 #fcfcfc
#000000 #000000;
#X obj -50 -210 + 5500;
#X obj 70 50 lop~ 1000;
#X obj 250 -80 del 100;
#X obj 10 -60 del 50;
#X connect 0 3 27 1;
#X connect 0 4 27 2;
#X connect 0 5 28 1;
#X connect 0 6 28 2;
#X connect 2 0 1 0;
#X connect 3 0 1 0;
#X connect 4 0 5 1;
#X connect 5 0 9 0;
#X connect 5 0 16 0;
#X connect 6 0 8 0;
#X connect 7 0 5 2;
#X connect 8 0 5 0;
#X connect 10 0 9 1;
#X connect 11 0 25 0;
#X connect 12 0 11 0;
#X connect 12 0 26 0;
#X connect 13 0 12 0;
#X connect 14 0 16 1;
#X connect 15 0 20 0;
#X connect 16 0 17 0;
#X connect 18 0 17 1;
#X connect 19 0 17 2;
#X connect 20 0 21 0;
#X connect 20 0 23 0;
#X connect 23 0 14 0;
#X connect 24 0 9 2;
#X connect 25 0 24 0;
#X connect 26 0 15 0;
#X connect 26 0 22 0;
#X connect 27 0 32 0;
#X connect 27 1 32 1;
#X connect 28 0 32 3;
#X connect 28 1 32 4;
#X connect 30 0 47 0;
#X connect 30 0 51 0;
#X connect 30 0 53 0;
#X connect 31 0 1 0;
#X connect 32 0 29 0;
#X connect 32 1 29 1;
#X connect 33 0 48 0;
#X connect 34 0 33 0;
#X connect 35 0 48 0;
#X connect 36 0 48 0;
#X connect 37 0 35 0;
#X connect 38 0 36 0;
#X connect 40 0 48 0;
#X connect 41 0 40 0;
#X connect 42 0 48 0;
#X connect 43 0 42 0;
#X connect 44 0 49 0;
#X connect 45 0 44 0;
#X connect 47 0 44 1;
#X connect 47 0 60 0;
#X connect 48 0 50 0;
#X connect 49 0 59 0;
#X connect 50 0 49 0;
#X connect 51 0 50 1;
#X connect 51 0 61 0;
#X connect 52 0 46 0;
#X connect 52 0 58 0;
#X connect 53 0 52 0;
#X connect 54 0 53 1;
#X connect 55 0 49 1;
#X connect 56 0 49 2;
#X connect 58 0 43 0;
#X connect 58 0 41 0;
#X connect 58 0 38 0;
#X connect 58 0 37 0;
#X connect 58 0 34 0;
#X connect 58 0 45 0;
#X connect 59 0 27 0;
#X connect 59 0 28 0;
#X connect 60 0 44 2;
#X connect 61 0 50 2;
