#N canvas 2097 122 1440 992 10;
#X obj 0 -1 bng 15 250 50 0 empty empty empty 17 7 0 10 #fcfcfc #000000
#000000;
#X text 16 13 Espacialidad híbrida;
#X obj 349 67 controllers/list_traj;
#X obj 349 19 loadbang;
#X floatatom 321 314 5 0 0 0 X - -, f 5;
#X floatatom 368 314 5 0 0 0 Y - -, f 5;
#X floatatom 428 314 5 0 0 0 SPD - -, f 5;
#X floatatom 188 169 5 0 0 2 R - -, f 5;
#X floatatom 148 169 5 0 0 2 L - -, f 5;
#X floatatom 590 340 5 0 0 2 rev_L - -, f 5;
#X floatatom 630 340 5 0 0 2 rev_R - -, f 5;
#X obj 347 271 unpack f f f f s f f f f, f 27;
#X floatatom 502 314 5 0 0 0 PRESS - -, f 5;
#X obj 52 488 writesf~ 2;
#X msg 190 490 start;
#X msg 240 490 stop;
#X obj 44 204 spaces/stereo_lr_2~;
#X obj 69 453 dac~;
#X obj 42 305 mixers/stereo_lr_rev~;
#X obj 520 390 processors/rev_conv~;
#X obj 603 117 processors/pitch_shift~;
#X obj 43 110 s~ in;
#X obj 764 37 loadbang;
#X msg 762 65 1;
#X msg 802 66 0.9;
#X obj 603 267 s~ in2;
#X obj 603 95 r~ in;
#X msg 52 524 open recordings/\$0-hybrid_spaces.wav;
#X msg 349 43 mov_agua circle uncontrolled left_right spiral;
#X text 194 114 "Baudelaire es el poeta";
#X obj 43 39 generators/soundfile~;
#X obj 130 450 controllers/dsp;
#X obj 44 165 r~ in2;
#X obj 300 341 expr (($f1 -1.5) / 100) + 0.2;
#X text 280 360 a kind of weird doppler. Also can be used a table;
#X connect 2 0 11 0;
#X connect 3 0 28 0;
#X connect 6 0 33 0;
#X connect 7 0 16 2;
#X connect 8 0 16 1;
#X connect 9 0 19 1;
#X connect 10 0 19 2;
#X connect 11 0 4 0;
#X connect 11 1 5 0;
#X connect 11 2 6 0;
#X connect 11 3 12 0;
#X connect 11 5 8 0;
#X connect 11 6 7 0;
#X connect 11 7 9 0;
#X connect 11 8 10 0;
#X connect 14 0 13 0;
#X connect 15 0 13 0;
#X connect 16 0 18 0;
#X connect 16 1 18 1;
#X connect 18 0 13 0;
#X connect 18 0 17 0;
#X connect 18 1 13 1;
#X connect 18 1 17 1;
#X connect 19 0 18 3;
#X connect 19 1 18 4;
#X connect 20 0 25 0;
#X connect 20 0 19 0;
#X connect 22 0 23 0;
#X connect 22 0 24 0;
#X connect 23 0 20 1;
#X connect 24 0 20 2;
#X connect 26 0 20 0;
#X connect 27 0 13 0;
#X connect 28 0 2 0;
#X connect 30 0 21 0;
#X connect 32 0 16 0;
#X connect 33 0 20 1;
