#N canvas -8 -8 1366 680 10;
#X obj 324 4 controllers/simple_OSC_quad;
#X obj 49 240 mixers/quad_rev~;
#X obj 74 185 spaces/quad~;
#X floatatom 73 133 5 0 0 0 - - -, f 5;
#X floatatom 113 133 5 0 0 0 - - -, f 5;
#X floatatom 153 133 5 0 0 0 - - -, f 5;
#X floatatom 193 133 5 0 0 0 - - -, f 5;
#X obj 27 442 misc/test_quad;
#X obj 217 445 dac~ 1 2 3 4;
#X obj 56 30 adc~;
#X obj 688 85 line;
#X obj 666 516 processors/rev~;
#X obj 386 516 processors/rev~;
#X obj 731 440 tgl 15 0 empty empty empty 17 7 0 10 #fcfcfc #000000
#000000 0 1;
#X obj 731 482 random 2;
#X floatatom 782 440 5 0 0 0 - - -, f 5;
#X obj 731 459 metro 200;
#X obj 594 110 processors/pitch_shift~;
#X obj 688 63 pack 0 180;
#X obj 594 264 processors/delay_feedback~;
#X obj 56 71 hip~ 100;
#X obj 688 39 expr (($f1-5) / 100) + 1;
#X obj -6 -3 bng 15 250 50 0 empty empty empty 17 7 0 10 #fcfcfc #000000
#000000;
#X floatatom 428 438 5 0 0 0 - - -, f 5;
#X floatatom 468 438 5 0 0 0 - - -, f 5;
#X floatatom 508 438 5 0 0 0 - - -, f 5;
#X floatatom 548 438 5 0 0 0 - - -, f 5;
#X text 133 34 Live set;
#X connect 0 2 21 0;
#X connect 0 4 3 0;
#X connect 0 5 4 0;
#X connect 0 6 5 0;
#X connect 0 7 6 0;
#X connect 0 8 23 0;
#X connect 0 9 24 0;
#X connect 0 10 25 0;
#X connect 0 11 26 0;
#X connect 1 1 8 0;
#X connect 1 3 8 1;
#X connect 1 5 8 2;
#X connect 1 7 8 3;
#X connect 2 0 1 0;
#X connect 2 1 1 1;
#X connect 2 2 1 2;
#X connect 2 3 1 3;
#X connect 3 0 2 1;
#X connect 4 0 2 2;
#X connect 5 0 2 3;
#X connect 6 0 2 4;
#X connect 7 0 8 0;
#X connect 7 1 8 1;
#X connect 7 2 8 2;
#X connect 7 3 8 3;
#X connect 9 0 20 0;
#X connect 10 0 17 1;
#X connect 11 0 1 7;
#X connect 11 1 1 8;
#X connect 12 0 1 5;
#X connect 12 1 1 6;
#X connect 13 0 16 0;
#X connect 14 0 12 4;
#X connect 14 0 11 4;
#X connect 15 0 16 1;
#X connect 16 0 14 0;
#X connect 17 0 19 0;
#X connect 18 0 10 0;
#X connect 19 0 12 0;
#X connect 19 0 11 0;
#X connect 20 0 1 0;
#X connect 21 0 18 0;
#X connect 23 0 12 1;
#X connect 24 0 12 2;
#X connect 25 0 11 1;
#X connect 26 0 11 2;
