#N canvas 1992 64 1848 991 10;
#X obj -418 185 writesf~ 2;
#X msg -336 186 start;
#X msg -286 186 stop;
#X obj -428 -96 spaces/stereo_lr_2~;
#X obj -398 154 dac~;
#X obj -426 -1 mixers/stereo_lr_rev~;
#X obj -251 -190 controllers/simple_OSC;
#X floatatom -325 -130 5 0 0 0 L - -, f 5;
#X floatatom -270 -130 5 0 0 0 R - -, f 5;
#X floatatom -160 -130 5 0 0 0 rev_L - -, f 5;
#X floatatom -90 -130 5 0 0 0 rev_R - -, f 5;
#X obj -450 -250 bng 15 250 50 0 empty empty empty 17 7 0 10 #fcfcfc
#000000 #000000;
#X obj -428 -157 adc~, f 7;
#X floatatom -38 -132 5 0 0 0 - - -, f 5;
#X floatatom -171 -220 5 0 0 0 SPD - -, f 5;
#X obj -89 -55 processors/rev_conv~;
#X obj -144 202 processors/pitch_shift~;
#X obj 64 202 processors/pitch_shift~;
#X text -429 -219 Live set;
#X obj -344 151 controllers/dsp;
#X obj 151 -132 pipe 5000;
#X obj -37 -166 expr (($f1 -1.5) / 2000) + 1;
#X obj 22 -132 - 0.2;
#X msg -418 219 open recordings/\$0-improv.wav;
#X obj 280 130 loadbang;
#X msg 280 160 1;
#X connect 1 0 0 0;
#X connect 2 0 0 0;
#X connect 3 0 5 0;
#X connect 3 1 5 1;
#X connect 5 0 4 0;
#X connect 5 0 0 0;
#X connect 5 1 4 1;
#X connect 5 1 0 1;
#X connect 6 2 14 0;
#X connect 6 5 7 0;
#X connect 6 6 8 0;
#X connect 6 7 9 0;
#X connect 6 8 10 0;
#X connect 7 0 3 1;
#X connect 8 0 3 2;
#X connect 9 0 15 1;
#X connect 10 0 15 2;
#X connect 12 0 3 0;
#X connect 12 0 15 0;
#X connect 13 0 22 0;
#X connect 14 0 21 0;
#X connect 15 0 16 0;
#X connect 15 1 17 0;
#X connect 16 0 5 3;
#X connect 17 0 5 4;
#X connect 20 0 17 1;
#X connect 21 0 13 0;
#X connect 22 0 16 1;
#X connect 22 0 20 0;
#X connect 23 0 0 0;
#X connect 24 0 25 0;
#X connect 25 0 17 2;
#X connect 25 0 16 2;
