#N canvas 0 0 1350 664 10;
#X obj 40 660 writesf~ 2;
#X msg -190 640 start;
#X msg -140 640 stop;
#X obj -381 205 spaces/stereo_lr_2~;
#X obj -321 455 dac~;
#X obj -340 260 mixers/stereo_lr_rev~;
#X obj -450 -240 bng 35 250 50 0 empty empty empty 17 7 0 10 #fcfcfc
#000000 #000000;
#X obj -108 135 processors/rev~;
#X obj 200 -180 controllers/list_traj;
#X floatatom -148 -15 5 0 0 0 X - -, f 5;
#X floatatom -98 -15 5 0 0 0 Y - -, f 5;
#X floatatom -36 -15 5 0 0 0 SPD - -, f 5;
#X obj -58 -65 unpack f f f s f f f f, f 27;
#X obj 52 -125 bng 15 250 50 0 empty empty empty 17 7 0 10 #fcfcfc
#000000 #000000;
#X obj -380 -40 controllers/sfplay~;
#X msg -370 -120 open C:/dev/TR/pd/sounds/CL_aqua_agudos_3_mono.wav
;
#X floatatom 40 10 5 0 0 0 - - -, f 5;
#X floatatom -10 20 5 0 0 0 - - -, f 5;
#X floatatom 100 20 5 0 0 0 - - -, f 5;
#X floatatom 140 20 5 0 0 0 - - -, f 5;
#X floatatom 20 120 5 0 0 0 - - -, f 5;
#X floatatom 60 120 5 0 0 0 - - -, f 5;
#X obj 170 253 processors/vibrato~;
#X obj 170 80 processors/delay_feedback~;
#X msg 180 660 open recordings/caida_libre_remo.wav;
#X obj 610 290 controllers/random_attack;
#X obj 660 420 bng 15 250 50 0 empty empty empty 17 7 0 10 #fcfcfc
#000000 #000000;
#X obj 700 420 bng 15 250 50 0 empty empty empty 17 7 0 10 #fcfcfc
#000000 #000000;
#X obj 540 250 controllers/sfplay~;
#X obj 540 480 processors/atack_decay~;
#X obj 540 600 dac~;
#X obj 540 552 *~ 1;
#X obj 870 290 controllers/random_attack;
#X obj 920 420 bng 15 250 50 0 empty empty empty 17 7 0 10 #fcfcfc
#000000 #000000;
#X obj 960 420 bng 15 250 50 0 empty empty empty 17 7 0 10 #fcfcfc
#000000 #000000;
#X obj 800 480 processors/atack_decay~;
#X obj 800 552 *~ 1;
#X obj 800 420 delread~ ddd;
#X obj 810 210 delwrite~ ddd;
#X floatatom 800 370 5 0 0 0 - - -, f 5;
#X obj 1120 600 vcf~;
#X obj 1270 330 vsl 15 128 0 1200 0 0 empty empty empty 0 -9 0 10 #fcfcfc
#000000 #000000 0 1;
#X obj 1270 500 sig~;
#X floatatom 1250 630 5 0 0 0 - - -, f 5;
#X obj 730 660 writesf~ 2;
#X msg 500 640 start;
#X msg 550 640 stop;
#X msg 870 660 open recordings/oom_base_1.wav;
#X obj -20 -190 controllers/simple_OSC;
#X floatatom 0 -150 5 0 0 0 - - -, f 5;
#X floatatom 60 -150 5 0 0 0 - - -, f 5;
#X floatatom 110 -150 5 0 0 0 - - -, f 5;
#X floatatom 160 -150 5 0 0 0 - - -, f 5;
#X obj -450 -250 bng 15 250 50 0 empty empty empty 17 7 0 10 #fcfcfc
#000000 #000000;
#X connect 1 0 0 0;
#X connect 2 0 0 0;
#X connect 3 0 5 0;
#X connect 3 1 5 1;
#X connect 5 0 4 0;
#X connect 5 0 0 0;
#X connect 5 1 4 1;
#X connect 5 1 0 1;
#X connect 7 0 5 3;
#X connect 7 1 5 4;
#X connect 12 0 9 0;
#X connect 12 1 10 0;
#X connect 12 2 11 0;
#X connect 12 4 3 1;
#X connect 12 4 17 0;
#X connect 12 5 3 2;
#X connect 12 5 16 0;
#X connect 12 6 7 1;
#X connect 12 6 18 0;
#X connect 12 6 20 0;
#X connect 12 7 7 2;
#X connect 12 7 19 0;
#X connect 12 7 21 0;
#X connect 14 0 3 0;
#X connect 14 0 23 0;
#X connect 15 0 14 0;
#X connect 22 0 7 0;
#X connect 23 0 22 0;
#X connect 24 0 0 0;
#X connect 25 0 26 0;
#X connect 25 1 27 0;
#X connect 26 0 29 1;
#X connect 27 0 29 2;
#X connect 28 0 29 0;
#X connect 28 0 38 0;
#X connect 29 0 31 0;
#X connect 31 0 30 0;
#X connect 31 0 44 0;
#X connect 32 0 33 0;
#X connect 32 1 34 0;
#X connect 33 0 35 1;
#X connect 34 0 35 2;
#X connect 35 0 36 0;
#X connect 36 0 30 1;
#X connect 36 0 44 1;
#X connect 37 0 35 0;
#X connect 39 0 37 0;
#X connect 41 0 42 0;
#X connect 42 0 40 1;
#X connect 43 0 40 2;
#X connect 45 0 44 0;
#X connect 46 0 44 0;
#X connect 47 0 44 0;
#X connect 48 3 49 0;
#X connect 48 4 50 0;
#X connect 48 5 51 0;
#X connect 48 6 52 0;
