#N canvas 1955 -11 998 647 10;
#X obj 100 250 spaces/stereo_lr~;
#X obj 120 320 mixers/stereo_lr_rev~;
#X obj 243 272 r main_amp;
#X obj 202 350 s visual_vu_L;
#X obj 243 371 s visual_vu_R;
#X obj 131 390 dac~;
#X obj 150 70 controllers/simple_OSC;
#X text 380 50 angle / distance /on / off /speed /x /y;
#X msg 460 140 goto \$1 \$2;
#X obj 458 113 pack f f;
#X obj 460 164 s grid;
#X obj 10 100 noise~;
#X obj 40 70 bp~ 50 0;
#X obj 90 20 nbx 5 14 -1e+37 1e+37 0 0 empty empty empty 0 -8 0 10
#fcfcfc #000000 #000000 1.43 256 0;
#X obj 30 20 nbx 5 14 -1e+37 1e+37 0 0 empty empty empty 0 -8 0 10
#fcfcfc #000000 #000000 544 256 0;
#X obj 100 170 processors/atack_decay~;
#X obj 520 250 generators/fm_phase~;
#X obj 643 181 metro 100;
#X obj 670 130 tgl 15 0 empty empty empty 17 7 0 10 #fcfcfc #000000
#000000 0 1;
#X floatatom 740 200 5 0 0 0 - - -, f 5;
#X obj 650 210 bng 15 250 50 0 empty empty empty 17 7 0 10 #fcfcfc
#000000 #000000;
#X floatatom 960 190 5 0 0 0 - - -, f 5;
#X floatatom 910 130 5 0 0 0 - - -, f 5;
#X obj 830 210 line 0 50;
#X obj 770 120 + 60;
#X msg 830 170 \$1 500;
#X obj 770 90 random 1000;
#X connect 0 0 1 0;
#X connect 0 1 1 1;
#X connect 1 0 5 0;
#X connect 1 1 5 1;
#X connect 1 2 3 0;
#X connect 1 3 4 0;
#X connect 2 0 1 2;
#X connect 6 0 0 1;
#X connect 6 1 0 2;
#X connect 6 2 15 1;
#X connect 6 3 15 2;
#X connect 6 5 9 0;
#X connect 6 6 9 1;
#X connect 8 0 10 0;
#X connect 9 0 8 0;
#X connect 11 0 12 0;
#X connect 12 0 0 0;
#X connect 13 0 12 2;
#X connect 14 0 12 1;
#X connect 15 0 0 0;
#X connect 16 0 15 0;
#X connect 17 0 20 0;
#X connect 18 0 17 0;
#X connect 19 0 17 1;
#X connect 20 0 26 0;
#X connect 22 0 23 2;
#X connect 23 0 16 0;
#X connect 23 0 21 0;
#X connect 23 0 14 0;
#X connect 24 0 25 0;
#X connect 25 0 23 0;
#X connect 26 0 24 0;
