#N canvas -1928 -323 960 992 10;
#X obj -351 91 controllers/simple_OSC;
#X obj 40 660 writesf~ 2;
#X msg -190 640 start;
#X msg -140 640 stop;
#X obj 730 50 processors/freeze;
#X obj 790 10 bng 15 250 50 0 empty empty empty 17 7 0 10 #fcfcfc #000000
#000000;
#X obj 850 0 vsl 15 128 0 127 0 0 empty empty empty 0 -9 0 10 #fcfcfc
#000000 #000000 0 1;
#X floatatom 720 240 5 0 0 0 - - -, f 5;
#X obj 640 190 expr (2-$f1)*100;
#X obj 635 461 line~;
#X obj 840 400 vsl 15 128 0 127 0 0 empty empty empty 0 -9 0 10 #fcfcfc
#000000 #000000 0 1;
#X obj 580 470 *~;
#X obj 613 526 bp~;
#X floatatom 670 530 5 0 0 0 - - -, f 5;
#X floatatom 720 540 5 0 0 0 - - -, f 5;
#X obj 1019 471 / 127;
#X floatatom 860 550 5 0 0 0 - - -, f 5;
#X floatatom 760 320 5 0 0 0 - - -, f 5;
#X obj 600 420 pack 0 25;
#X obj 984 127 line;
#X obj 983 87 pack 0 100;
#X obj 600 320 expr 210-$f1;
#X obj -173 350 spaces/stereo_lr_2~;
#X obj -23 350 processors/rev~;
#X obj -113 600 dac~;
#X obj -143 400 mixers/stereo_lr_rev~;
#X obj -450 -240 bng 35 250 50 0 empty empty empty 17 7 0 10 #fcfcfc
#000000 #000000;
#X obj 327 443 osc~ 440;
#X obj 348 230 bp~ 2000 10;
#X obj 438 240 nbx 5 14 -1e+37 1e+37 0 0 empty empty empty 0 -8 0 10
#fcfcfc #000000 #000000 0 256 0;
#X obj 428 300 nbx 5 14 -1e+37 1e+37 0 0 empty empty empty 0 -8 0 10
#fcfcfc #000000 #000000 0 256 0;
#X obj 368 180 delay~ 2000;
#X obj 458 120 *~ 0.1, f 4;
#X obj 448 180 delay~ 3000;
#X obj -162 25 generators/soundfile~;
#X obj -430 246 processors/fil_bp~;
#X msg -400 -60 open C:/Users/casaj/Documents/UNTREF/TESIS21/obras/4guitarras/ataque-strech.wav
\, 1, f 123;
#X floatatom -340 140 5 0 0 0 - - -, f 5;
#X obj -240 210 / 250;
#X floatatom -180 230 5 0 0 0 - - -, f 5;
#X floatatom -390 200 5 0 0 0 - - -, f 5;
#X obj -326 178 expr (500-$f1)/20;
#X msg -400 -100 open C:/Users/casaj/Documents/UNTREF/TESIS21/obras/4guitarras/acorde2-strech.wav
\, 1, f 123;
#X msg -400 -140 open C:/Users/casaj/Documents/UNTREF/TESIS21/obras/4guitarras/pua_rugoso.wav
\, 1, f 123;
#X msg 180 660 open recordings/4g_pua_circle.wav;
#X connect 0 1 37 0;
#X connect 0 3 22 1;
#X connect 0 4 22 2;
#X connect 0 5 23 1;
#X connect 0 6 23 2;
#X connect 2 0 1 0;
#X connect 3 0 1 0;
#X connect 5 0 4 1;
#X connect 6 0 20 0;
#X connect 7 0 6 0;
#X connect 7 0 21 0;
#X connect 8 0 7 0;
#X connect 9 0 11 1;
#X connect 10 0 15 0;
#X connect 11 0 12 0;
#X connect 13 0 12 1;
#X connect 14 0 12 2;
#X connect 15 0 16 0;
#X connect 15 0 18 0;
#X connect 18 0 9 0;
#X connect 19 0 4 2;
#X connect 20 0 19 0;
#X connect 21 0 10 0;
#X connect 21 0 17 0;
#X connect 22 0 25 0;
#X connect 22 1 25 1;
#X connect 23 0 25 3;
#X connect 23 1 25 4;
#X connect 25 0 24 0;
#X connect 25 0 1 0;
#X connect 25 1 24 1;
#X connect 25 1 1 1;
#X connect 29 0 28 1;
#X connect 30 0 28 2;
#X connect 31 0 28 0;
#X connect 34 2 35 0;
#X connect 34 2 23 0;
#X connect 35 0 22 0;
#X connect 36 0 34 0;
#X connect 37 0 41 0;
#X connect 38 0 39 0;
#X connect 41 0 38 0;
#X connect 41 0 40 0;
#X connect 42 0 34 0;
#X connect 43 0 34 0;
#X connect 44 0 1 0;
