#N canvas 1992 64 1848 991 10;
#X obj -88 -3 bng 15 250 50 0 empty empty empty 17 7 0 10 #fcfcfc #000000
#000000;
#X obj 355 64 controllers/list_traj;
#X obj 355 16 loadbang;
#X floatatom 298 311 5 0 0 0 X - -, f 5;
#X floatatom 345 311 5 0 0 0 Y - -, f 5;
#X floatatom 405 311 5 0 0 0 SPD - -, f 5;
#X floatatom 97 137 5 0 0 2 LR - -, f 5;
#X floatatom 57 137 5 0 0 2 LF - -, f 5;
#X floatatom 609 319 5 0 0 2 rev_LF - -, f 5;
#X floatatom 649 319 5 0 0 2 rev_LR - -, f 5;
#X obj 304 337 expr (($f1 -1.5) /1000) + 1;
#X floatatom 479 311 5 0 0 0 PRESS - -, f 5;
#X msg 152 657 start;
#X msg 202 657 stop;
#X obj 516 346 processors/rev_conv~;
#X obj 609 114 processors/pitch_shift~;
#X obj -56 91 s~ in;
#X obj 770 34 loadbang;
#X msg 768 62 1;
#X msg 808 63 0.9;
#X obj 609 264 s~ in2;
#X obj -56 137 r~ in2;
#X obj 609 92 r~ in;
#X msg 355 40 mov_agua circle uncontrolled left_right spiral;
#X text 187 15 "Baudelaire es el poeta";
#X obj 353 268 unpack f f f f s f f f f f f f f, f 37;
#X obj -10 480 mixers/quad_rev~;
#X floatatom 690 318 5 0 0 2 rev_RF - -, f 5;
#X floatatom 730 318 5 0 0 2 rev_RR - -, f 5;
#X obj -56 194 spaces/quad~;
#X floatatom 173 137 5 0 0 2 RR - -, f 5;
#X floatatom 133 137 5 0 0 2 RF - -, f 5;
#X msg 130 730 open recordings/\$0-hybrid_spaces_stereo.wav;
#X obj 12 657 dac~ 1 2 3 4;
#X obj 30 730 writesf~ 4;
#X obj -56 39 generators/soundfile~;
#X text -57 13 Hybrid space;
#X text 200 360 a kind of weird doppler. Also can be used a table;
#X connect 1 0 25 0;
#X connect 2 0 23 0;
#X connect 5 0 10 0;
#X connect 6 0 29 2;
#X connect 7 0 29 1;
#X connect 8 0 14 1;
#X connect 9 0 14 2;
#X connect 10 0 15 1;
#X connect 12 0 34 0;
#X connect 13 0 34 0;
#X connect 14 0 26 5;
#X connect 14 1 26 6;
#X connect 14 2 26 7;
#X connect 14 3 26 8;
#X connect 15 0 20 0;
#X connect 15 0 14 0;
#X connect 17 0 18 0;
#X connect 17 0 19 0;
#X connect 18 0 15 1;
#X connect 19 0 15 2;
#X connect 21 0 29 0;
#X connect 22 0 15 0;
#X connect 23 0 1 0;
#X connect 25 0 3 0;
#X connect 25 1 4 0;
#X connect 25 2 5 0;
#X connect 25 3 11 0;
#X connect 25 5 7 0;
#X connect 25 6 6 0;
#X connect 25 7 31 0;
#X connect 25 8 30 0;
#X connect 25 9 8 0;
#X connect 25 10 9 0;
#X connect 25 11 27 0;
#X connect 25 12 28 0;
#X connect 26 0 33 0;
#X connect 26 0 34 0;
#X connect 26 1 33 1;
#X connect 26 1 34 1;
#X connect 26 2 33 2;
#X connect 26 2 34 2;
#X connect 26 3 33 3;
#X connect 26 3 34 3;
#X connect 27 0 14 3;
#X connect 28 0 14 4;
#X connect 29 0 26 0;
#X connect 29 1 26 1;
#X connect 29 2 26 2;
#X connect 29 3 26 3;
#X connect 30 0 29 4;
#X connect 31 0 29 3;
#X connect 32 0 34 0;
#X connect 35 0 16 0;
