#N canvas 0 0 1350 664 10;
#X obj -340 550 writesf~ 2;
#X msg -180 480 start;
#X msg -130 480 stop;
#X obj -250 170 spaces/stereo_lr_2~;
#X obj -321 455 dac~;
#X obj -340 260 mixers/stereo_lr_rev~;
#X obj -450 -240 bng 35 250 50 0 empty empty empty 17 7 0 10 #fcfcfc
#000000 #000000;
#X obj 210 290 processors/rev~;
#X obj 200 -180 controllers/list_traj;
#X floatatom 480 -100 5 0 0 0 X - -, f 5;
#X floatatom 530 -100 5 0 0 0 Y - -, f 5;
#X floatatom 592 -100 5 0 0 0 SPD - -, f 5;
#X obj 570 -150 unpack f f f s f f f f, f 27;
#X obj -380 -40 controllers/sfplay~;
#X msg -370 -120 open C:/dev/TR/pd/sounds/CL_aqua_agudos_3_mono.wav
;
#X floatatom 668 -75 5 0 0 0 - - -, f 5;
#X floatatom 618 -65 5 0 0 0 - - -, f 5;
#X floatatom 728 -65 5 0 0 0 - - -, f 5;
#X floatatom 768 -65 5 0 0 0 - - -, f 5;
#X obj -380 0 processors/vibrato~;
#X obj -20 -190 controllers/simple_OSC;
#X floatatom 0 -150 5 0 0 0 - - -, f 5;
#X floatatom 60 -150 5 0 0 0 - - -, f 5;
#X floatatom 110 -150 5 0 0 0 - - -, f 5;
#X floatatom 160 -150 5 0 0 0 - - -, f 5;
#X obj -450 -250 bng 15 250 50 0 empty empty empty 17 7 0 10 #fcfcfc
#000000 #000000;
#X floatatom -50 -130 5 0 0 0 - - -, f 5;
#X obj 10 -100 adc~, f 7;
#X obj 540 300 metro 500;
#X floatatom 540 380 5 0 0 0 - - -, f 5;
#X obj 557 245 tgl 15 0 empty empty empty 17 7 0 10 #fcfcfc #000000
#000000 0 1;
#X obj 540 340 random 2;
#X floatatom 574 274 5 0 0 0 - - -, f 5;
#X obj 200 70 processors/pitch_shift~;
#X obj -80 -40 processors/pitch_shift~;
#X floatatom 500 40 5 0 0 0 - - -, f 5;
#X floatatom 60 -220 5 0 0 0 - - -, f 5;
#X obj 500 -40 expr (($f1 -1.5) /400) + 1;
#X msg -40 490;
#X msg -200 550 open recordings/improv_II.wav;
#X obj -210 -220 controllers/simple_OSC_quad;
#X connect 1 0 0 0;
#X connect 2 0 0 0;
#X connect 3 0 5 0;
#X connect 3 1 5 1;
#X connect 5 0 4 0;
#X connect 5 0 0 0;
#X connect 5 1 4 1;
#X connect 5 1 0 1;
#X connect 7 0 5 3;
#X connect 7 1 5 4;
#X connect 8 0 12 0;
#X connect 11 0 37 0;
#X connect 12 0 9 0;
#X connect 12 1 10 0;
#X connect 12 2 11 0;
#X connect 12 4 16 0;
#X connect 12 5 15 0;
#X connect 12 6 17 0;
#X connect 12 7 18 0;
#X connect 13 0 19 0;
#X connect 14 0 13 0;
#X connect 15 0 3 2;
#X connect 16 0 3 1;
#X connect 17 0 7 1;
#X connect 18 0 7 2;
#X connect 20 1 26 0;
#X connect 20 2 36 0;
#X connect 20 3 21 0;
#X connect 20 4 22 0;
#X connect 20 5 23 0;
#X connect 20 6 24 0;
#X connect 21 0 3 1;
#X connect 22 0 3 2;
#X connect 23 0 7 1;
#X connect 24 0 7 2;
#X connect 27 0 34 0;
#X connect 28 0 31 0;
#X connect 30 0 28 0;
#X connect 31 0 29 0;
#X connect 31 0 7 4;
#X connect 32 0 28 1;
#X connect 33 0 7 0;
#X connect 34 0 3 0;
#X connect 34 0 33 0;
#X connect 35 0 34 1;
#X connect 36 0 37 0;
#X connect 37 0 35 0;
#X connect 39 0 0 0;
