#N canvas 242 552 919 772 12;
#X obj 45 50 generators/soundfile~;
#X obj 278 283 processors/rev~;
#X msg 423 228 0.8;
#X msg 384 228 0.5;
#X obj 383 190 loadbang;
#X obj 45 116 processors/pitch_shift~;
#X obj 45 350 spaces/stereo_lr_2~;
#X obj 530 70 controllers/simple_OSC;
#X obj 140 450 mixers/stereo_lr_rev~;
#X obj 160 620 dac~;
#X obj 705 160 s l;
#X obj 749 159 s r;
#X obj 181 304 r l;
#X obj 211 304 r r;
#X obj 795 159 s rev_l;
#X obj 853 159 s rev_r;
#X obj 263 228 r rev_l;
#X obj 321 228 r rev_r;
#X floatatom 560 120 5 0 0 0 SPD - -, f 5;
#X obj 560 179 tabread speed;
#X floatatom 560 289 5 0 0 0 - - -, f 5;
#X obj 560 233 line;
#X obj 510 360 table speed 30;
#X obj 560 148 clip 0 30;
#X obj 560 316 s doppler;
#X obj 220 70 r doppler;
#X msg 340 190 1;
#X msg 519 33 listen 6666;
#X obj 560 260 expr 1 + $f1;
#X obj 560 206 pack 0 100;
#X obj 210 620 controllers/dsp;
#X floatatom 700 130 5 0 0 0 - - -, f 5;
#X floatatom 750 130 5 0 0 0 - - -, f 5;
#X floatatom 796 131 5 0 0 0 - - -, f 5;
#X floatatom 840 130 5 0 0 0 - - -, f 5;
#X connect 0 0 5 0;
#X connect 1 0 8 3;
#X connect 1 1 8 4;
#X connect 2 0 1 4;
#X connect 3 0 1 3;
#X connect 4 0 3 0;
#X connect 4 0 2 0;
#X connect 4 0 26 0;
#X connect 5 0 6 0;
#X connect 5 0 1 0;
#X connect 6 0 8 0;
#X connect 6 1 8 1;
#X connect 7 2 18 0;
#X connect 7 5 31 0;
#X connect 7 6 32 0;
#X connect 7 7 33 0;
#X connect 7 8 34 0;
#X connect 8 0 9 0;
#X connect 8 1 9 1;
#X connect 12 0 6 1;
#X connect 13 0 6 2;
#X connect 16 0 1 1;
#X connect 17 0 1 2;
#X connect 18 0 23 0;
#X connect 19 0 29 0;
#X connect 20 0 24 0;
#X connect 21 0 28 0;
#X connect 23 0 19 0;
#X connect 25 0 5 1;
#X connect 26 0 5 2;
#X connect 27 0 7 0;
#X connect 28 0 20 0;
#X connect 29 0 21 0;
#X connect 31 0 10 0;
#X connect 32 0 11 0;
#X connect 33 0 14 0;
#X connect 34 0 15 0;
