#N canvas -7 0 1028 671 10;
#X obj 300 50 controllers/simple_OSC_quad;
#X obj 110 240 mixers/quad_rev~;
#X obj 250 120 spaces/quad~;
#X floatatom 60 120 5 0 0 0 - - -, f 5;
#X floatatom 100 120 5 0 0 0 - - -, f 5;
#X floatatom 140 120 5 0 0 0 - - -, f 5;
#X floatatom 180 120 5 0 0 0 - - -, f 5;
#X obj 80 480 misc/test_quad;
#X obj 300 540 dac~ 1 2 3 4;
#X obj 70 30 adc~;
#X obj 490 100 processors/pitch_shift~;
#X obj 520 50 pack 0 50;
#X obj 520 72 line;
#X obj 520 20 expr (($f1-5) / 400) + 1;
#X obj 750 350 processors/rev~;
#X obj 470 350 processors/rev~;
#X obj 800 210 tgl 15 0 empty empty empty 17 7 0 10 #fcfcfc #000000
#000000 0 1;
#X obj 870 280 random 2;
#X floatatom 900 170 5 0 0 0 - - -, f 5;
#X obj 870 240 metro 200;
#X obj 700 40 processors/pitch_shift~;
#X connect 0 2 13 0;
#X connect 0 3 2 1;
#X connect 0 3 3 0;
#X connect 0 4 2 2;
#X connect 0 4 4 0;
#X connect 0 5 2 3;
#X connect 0 5 5 0;
#X connect 0 6 2 4;
#X connect 0 6 6 0;
#X connect 0 7 15 1;
#X connect 0 8 15 2;
#X connect 0 9 14 1;
#X connect 0 10 14 2;
#X connect 1 1 8 0;
#X connect 1 3 8 1;
#X connect 1 5 8 2;
#X connect 1 7 8 3;
#X connect 2 0 1 0;
#X connect 2 1 1 1;
#X connect 2 2 1 2;
#X connect 2 3 1 3;
#X connect 7 0 8 0;
#X connect 7 1 8 1;
#X connect 7 2 8 2;
#X connect 7 3 8 3;
#X connect 9 0 10 0;
#X connect 10 0 2 0;
#X connect 10 0 20 0;
#X connect 11 0 12 0;
#X connect 12 0 10 1;
#X connect 13 0 11 0;
#X connect 14 0 1 7;
#X connect 14 1 1 8;
#X connect 15 0 1 5;
#X connect 15 1 1 6;
#X connect 16 0 19 0;
#X connect 17 0 15 4;
#X connect 17 0 14 4;
#X connect 18 0 19 1;
#X connect 19 0 17 0;
#X connect 20 0 15 0;
#X connect 20 0 14 0;
