#N canvas -1928 -323 1920 992 10;
#X obj -418 272 writesf~ 2;
#X msg -336 273 start;
#X msg -286 273 stop;
#X obj -428 -9 spaces/stereo_lr_2~;
#X obj -398 241 dac~;
#X obj -425 48 mixers/stereo_lr_rev~;
#X floatatom -373 -44 5 0 0 0 L - -, f 5;
#X floatatom -318 -44 5 0 0 0 R - -, f 5;
#X floatatom -35 -44 5 0 0 0 rev_L - -, f 5;
#X floatatom 34 -44 5 0 0 0 rev_R - -, f 5;
#X obj -450 -250 bng 15 250 50 0 empty empty empty 17 7 0 10 #fcfcfc
#000000 #000000;
#X floatatom 83 328 5 0 0 0 SPD - -, f 5;
#X obj -97 34 processors/rev_conv~;
#X obj -150 398 processors/pitch_shift~;
#X obj 58 398 processors/pitch_shift~;
#X obj -344 238 controllers/dsp;
#X floatatom 193 -163 5 0 0 0 PRESS - -, f 5;
#X obj -385 -243 generators/soundfile~;
#X text -429 -219 OOM;
#X obj 395 34 controllers/list_traj;
#X obj 396 245 unpack f f f f s f f f f;
#X obj 448 302 s press;
#X obj 433 497 s vel;
#X obj 518 302 s l;
#X obj 557 302 s r;
#X obj 592 303 s rev_ l;
#X obj 659 303 s rev_r;
#X obj 553 -92 loadbang;
#X obj 468 374 route START END;
#X obj 468 401 bng 15 250 50 0 empty empty empty 17 7 0 10 #fcfcfc
#000000 #000000;
#X obj 512 401 bng 15 250 50 0 empty empty empty 17 7 0 10 #fcfcfc
#000000 #000000;
#X msg 553 -29 oom_continuo oom_part;
#X obj -373 -83 r l;
#X obj -316 -83 r r;
#X obj -35 -83 r rev_ l;
#X obj 34 -83 r rev_r;
#X obj 550 403 bng 15 250 50 0 empty empty empty 17 7 0 10 #fcfcfc
#000000 #000000;
#X msg 470 337 \$1;
#X obj 469 431 s start;
#X obj 528 431 s end;
#X obj -384 -148 processors/attack_decay~;
#X obj -293 -196 r start;
#X obj -202 -175 r end;
#X obj 164 284 r vel;
#X obj 807 6 r end;
#X msg 807 31 0;
#X msg 726 90 1;
#X obj 724 67 pipe 500;
#X obj 734 154 bng 15 250 50 0 empty empty empty 17 7 0 10 #fcfcfc
#000000 #000000;
#X floatatom 826 106 5 0 0 0 - - -, f 5;
#X obj 192 -62 nbx 5 14 50 110 0 0 empty empty empty 0 -8 0 10 #fcfcfc
#000000 #000000 50 256 0;
#X obj 193 -141 * 100;
#X obj 194 -187 r press;
#X msg -418 306 open recordings/\$0-OOM_II.wav;
#X obj -293 -172 del 1000;
#X obj 192 -92 line;
#X obj 194 -116 pack 0 1500;
#X obj 161 333 line;
#X obj -106 -195 noise~;
#X obj -78 -133 *~;
#X obj 102 -91 line;
#X obj 104 -115 pack 0 1500;
#X obj -76 -165 vcf~;
#X obj -41 -196 sig~;
#X floatatom -44 -219 5 0 0 0 - - -, f 5;
#X floatatom 0 -180 5 0 0 0 - - -, f 5;
#X obj 435 461 expr ((($f1 -2) / 100) + 1) + 0.1;
#X obj 163 309 pack 0 1000;
#X connect 1 0 0 0;
#X connect 2 0 0 0;
#X connect 3 0 5 0;
#X connect 3 1 5 1;
#X connect 5 0 4 0;
#X connect 5 0 0 0;
#X connect 5 1 4 1;
#X connect 5 1 0 1;
#X connect 6 0 3 1;
#X connect 7 0 3 2;
#X connect 8 0 12 1;
#X connect 9 0 12 2;
#X connect 11 0 14 1;
#X connect 11 0 13 1;
#X connect 12 0 13 0;
#X connect 12 1 14 0;
#X connect 13 0 5 3;
#X connect 14 0 5 4;
#X connect 16 0 51 0;
#X connect 16 0 61 0;
#X connect 17 0 40 0;
#X connect 19 0 20 0;
#X connect 20 2 66 0;
#X connect 20 3 21 0;
#X connect 20 4 37 0;
#X connect 20 5 23 0;
#X connect 20 6 24 0;
#X connect 20 7 25 0;
#X connect 20 8 26 0;
#X connect 27 0 31 0;
#X connect 28 0 29 0;
#X connect 28 1 30 0;
#X connect 28 2 36 0;
#X connect 29 0 38 0;
#X connect 30 0 39 0;
#X connect 31 0 19 0;
#X connect 32 0 6 0;
#X connect 33 0 7 0;
#X connect 34 0 8 0;
#X connect 35 0 9 0;
#X connect 37 0 28 0;
#X connect 40 0 3 0;
#X connect 40 0 12 0;
#X connect 41 0 54 0;
#X connect 42 0 40 2;
#X connect 43 0 67 0;
#X connect 44 0 45 0;
#X connect 45 0 19 1;
#X connect 45 0 47 0;
#X connect 46 0 19 1;
#X connect 46 0 48 0;
#X connect 47 0 46 0;
#X connect 49 0 47 1;
#X connect 50 0 12 5;
#X connect 51 0 56 0;
#X connect 52 0 16 0;
#X connect 53 0 0 0;
#X connect 54 0 40 1;
#X connect 55 0 50 0;
#X connect 56 0 55 0;
#X connect 57 0 11 0;
#X connect 58 0 62 0;
#X connect 59 0 12 0;
#X connect 60 0 59 1;
#X connect 61 0 60 0;
#X connect 62 0 59 0;
#X connect 63 0 62 1;
#X connect 64 0 63 0;
#X connect 65 0 62 2;
#X connect 66 0 22 0;
#X connect 67 0 57 0;
