#N canvas 450 182 450 300 10;
#X obj 260 100 controllers/random_attack;
#X obj 310 230 bng 15 250 50 0 empty empty empty 17 7 0 10 #fcfcfc
#000000 #000000;
#X obj 350 230 bng 15 250 50 0 empty empty empty 17 7 0 10 #fcfcfc
#000000 #000000;
#X obj 190 60 controllers/sfplay~;
#X obj 190 290 processors/atack_decay~;
#X obj 190 362 *~ 1;
#X obj 520 100 controllers/random_attack;
#X obj 570 230 bng 15 250 50 0 empty empty empty 17 7 0 10 #fcfcfc
#000000 #000000;
#X obj 610 230 bng 15 250 50 0 empty empty empty 17 7 0 10 #fcfcfc
#000000 #000000;
#X obj 450 290 processors/atack_decay~;
#X obj 450 362 *~ 1;
#X obj 450 230 delread~ ddd;
#X obj 460 20 delwrite~ ddd;
#X floatatom 450 180 5 0 0 0 - - -, f 5;
#X obj 380 470 writesf~ 2;
#X msg 150 450 start;
#X msg 200 450 stop;
#X msg 520 470 open recordings/oom_base_1.wav;
#X connect 0 0 1 0;
#X connect 0 1 2 0;
#X connect 1 0 4 1;
#X connect 2 0 4 2;
#X connect 3 0 4 0;
#X connect 3 0 12 0;
#X connect 4 0 5 0;
#X connect 5 0 14 0;
#X connect 6 0 7 0;
#X connect 6 1 8 0;
#X connect 7 0 9 1;
#X connect 8 0 9 2;
#X connect 9 0 10 0;
#X connect 10 0 14 1;
#X connect 11 0 9 0;
#X connect 13 0 11 0;
#X connect 15 0 14 0;
#X connect 16 0 14 0;
#X connect 17 0 14 0;
