#N canvas 450 182 450 300 10;
#X obj 307 -156 tgl 15 0 empty empty empty 17 7 0 10 #fcfcfc #000000
#000000 0 1;
#X obj 257 -41 osc~;
#X obj 257 -81 * 3.1;
#X obj 207 -41 osc~;
#X obj 167 -41 osc~;
#X obj 207 -81 * 5.05;
#X obj 167 -81 * 6.9;
#X text 117 -176 additive;
#X obj 122 -41 osc~;
#X obj 122 -81 * 9.06;
#X obj 77 -41 osc~;
#X obj 77 -81 * 11.2;
#X obj 317 34 processors/atack_decay~;
#X obj 297 -41 osc~;
#X floatatom 327 -116 5 0 0 0 - - -, f 5;
#X obj 407 -86 metro 300;
#X obj 77 14 *~ 0.3;
#X obj 418 108 bp~ 1000 5;
#X obj 77 54 processors/atack_decay~;
#X obj 477 -86 metro 400;
#X obj 197 -146 random 8000;
#X obj 197 -166 metro 30;
#X obj 527 -126 hsl 128 15 0 127 0 0 empty empty empty -2 -8 0 10 #fcfcfc
#000000 #000000 0 1;
#X obj 527 94 nbx 8 14 100 4000 0 1 empty empty freq 0 -8 0 10 #fcfcfc
#000000 #000000 2279 256 0;
#X obj 627 94 nbx 5 14 0 10 0 0 empty empty Q 0 -8 0 10 #fcfcfc #000000
#000000 0 256 0;
#X obj 197 -126 + 5500;
#X obj 418 138 lop~ 1000;
#X obj 497 4 del 100;
#X obj 257 24 del 50;
#X connect 0 0 15 0;
#X connect 0 0 19 0;
#X connect 0 0 21 0;
#X connect 1 0 16 0;
#X connect 2 0 1 0;
#X connect 3 0 16 0;
#X connect 4 0 16 0;
#X connect 5 0 3 0;
#X connect 6 0 4 0;
#X connect 8 0 16 0;
#X connect 9 0 8 0;
#X connect 10 0 16 0;
#X connect 11 0 10 0;
#X connect 12 0 17 0;
#X connect 13 0 12 0;
#X connect 15 0 12 1;
#X connect 15 0 27 0;
#X connect 16 0 18 0;
#X connect 17 0 26 0;
#X connect 18 0 17 0;
#X connect 19 0 18 1;
#X connect 19 0 28 0;
#X connect 20 0 14 0;
#X connect 20 0 25 0;
#X connect 21 0 20 0;
#X connect 22 0 21 1;
#X connect 23 0 17 1;
#X connect 24 0 17 2;
#X connect 25 0 11 0;
#X connect 25 0 9 0;
#X connect 25 0 6 0;
#X connect 25 0 5 0;
#X connect 25 0 2 0;
#X connect 25 0 13 0;
#X connect 27 0 12 2;
#X connect 28 0 18 2;
