#N canvas 1920 339 1366 685 10;
#X obj 76 91 soundfiler;
#X floatatom 76 113 10 0 0 0 - - -, f 10;
#X obj 78 215 *~;
#X obj 76 306 tabread4~ array1;
#X obj 468 541 dac~;
#N canvas 0 0 450 300 (subpatch) 0;
#X array array1 892928 float 2 black #00a300;
#X coords 0 1 892928 -1 200 140 1;
#X restore 354 20 graph;
#X msg 77 7 son/piano.wav;
#X obj 217 117 print;
#X obj 76 163 osc~;
#X obj 92 248 unsig~;
#X floatatom 92 270 50 0 0 0 - - -, f 50;
#X obj 30 186 abs~;
#X obj 410 481 r~ t1;
#X obj 523 478 r~ t2;
#X obj 702 434 s~ t2;
#X obj 96 423 s~ t1, f 17;
#X obj 790 130 soundfiler;
#X floatatom 790 152 10 0 0 0 - - -, f 10;
#X obj 801 313 *~;
#X msg 791 46 son/piano.wav;
#X obj 931 156 print;
#X obj 815 346 unsig~;
#X floatatom 815 368 50 0 0 0 - - -, f 50;
#X obj 790 173 expr 4410 / $f1;
#X obj 756 266 abs~;
#X obj 743 206 osc~;
#X floatatom 867 217 5 0 0 0 - - -, f 5;
#X obj 790 202 phasor~;
#N canvas 0 0 450 300 (subpatch) 0;
#X array array2 4e+06 float 2 black #c30000;
#X coords 0 1 4e+06 -1 200 140 1;
#X restore 812 502 graph;
#X obj 799 404 tabread4~ array2;
#X msg 791 92 read -resize son/piano.wav array2;
#X obj 439 244 hsl 128 15 0 892298 0 0 empty empty empty -2 -8 0 10
-262144 -1 -1 12675 1;
#X obj 562 619 vsl 15 128 0 127 0 0 empty empty empty 0 -9 0 10 -262144
-1 -1 0 1;
#X obj 441 289 hsl 128 15 0 4e+06 0 0 empty empty empty -2 -8 0 10
-262144 -1 -1 9697 1;
#X obj 833 262 *~ 0.01;
#X obj 97 354 bp~;
#X floatatom 116 325 5 0 0 0 - - -, f 5;
#X floatatom 177 328 5 0 0 0 - - -, f 5;
#X obj 253 176 osc~;
#X obj 255 202 abs~;
#X obj 247 234 *~ 0.05;
#X obj 186 174 * 2.1;
#X obj 76 137 expr 2410 / $f1;
#X msg 77 53 read -resize son/pulse.wav array1;
#X obj 332 560 writesf~ 2;
#X msg 282 459 open son.wav;
#X msg 363 426 start;
#X msg 312 499 stop, f 6;
#X connect 0 0 1 0;
#X connect 1 0 2 1;
#X connect 1 0 42 0;
#X connect 2 0 3 0;
#X connect 2 0 9 0;
#X connect 3 0 35 0;
#X connect 6 0 43 0;
#X connect 8 0 11 0;
#X connect 9 0 10 0;
#X connect 10 0 31 0;
#X connect 11 0 2 0;
#X connect 12 0 4 0;
#X connect 12 0 44 0;
#X connect 13 0 4 1;
#X connect 13 0 44 1;
#X connect 16 0 17 0;
#X connect 17 0 18 1;
#X connect 17 0 23 0;
#X connect 18 0 21 0;
#X connect 18 0 29 0;
#X connect 19 0 30 0;
#X connect 21 0 22 0;
#X connect 22 0 33 0;
#X connect 23 0 25 0;
#X connect 23 0 27 0;
#X connect 24 0 18 0;
#X connect 25 0 24 0;
#X connect 26 0 27 1;
#X connect 27 0 34 0;
#X connect 29 0 14 0;
#X connect 30 0 16 0;
#X connect 34 0 18 0;
#X connect 35 0 15 0;
#X connect 36 0 35 1;
#X connect 37 0 35 2;
#X connect 38 0 39 0;
#X connect 39 0 40 0;
#X connect 40 0 2 0;
#X connect 41 0 38 0;
#X connect 42 0 8 0;
#X connect 42 0 41 0;
#X connect 43 0 0 0;
#X connect 45 0 44 0;
#X connect 46 0 44 0;
#X connect 47 0 44 0;
