#N canvas 450 182 450 300 10;
#X obj 53 96 metro;
#X obj 37 197 phasor~;
#X obj 101 421 s~ saw;
#X obj 127 317 *~ 0.2;
#X obj 106 6 tgl 15 0 empty empty empty 17 7 0 10 #fcfcfc #000000 #000000
0 1;
#X obj 144 161 random 50 200;
#X obj 144 195 phasor~;
#X obj 37 163 random 0 200;
#X floatatom 105 64 5 0 0 0 - - -, f 5;
#X obj 242 196 phasor~;
#X obj 349 194 phasor~;
#X obj 239 13 metro;
#X floatatom 361 -10 5 0 0 0 - - -, f 5;
#X floatatom 548 161 5 0 0 0 - - -, f 5;
#X obj 239 48 random 100;
#X obj 534 125 line;
#X obj 537 59 / 200;
#X obj 534 102 pack 0 50;
#X obj 124 367 hip~ 300;
#X obj 242 163 random 300 1050;
#X obj 352 159 random 400 800;
#X connect 0 0 7 0;
#X connect 0 0 5 0;
#X connect 0 0 19 0;
#X connect 0 0 20 0;
#X connect 1 0 3 0;
#X connect 3 0 18 0;
#X connect 4 0 0 0;
#X connect 4 0 11 0;
#X connect 5 0 6 0;
#X connect 6 0 3 0;
#X connect 7 0 1 0;
#X connect 8 0 0 1;
#X connect 9 0 3 0;
#X connect 10 0 3 0;
#X connect 11 0 14 0;
#X connect 12 0 11 1;
#X connect 13 0 3 1;
#X connect 14 0 16 0;
#X connect 15 0 13 0;
#X connect 16 0 17 0;
#X connect 17 0 15 0;
#X connect 18 0 2 0;
#X connect 19 0 9 0;
#X connect 20 0 10 0;
