#N canvas 1393 340 1429 512 10;
#X obj 172 55 adc~;
#X obj 637 12 hsl 128 15 -0.5 1.5 0 0 empty empty empty -2 -8 0 10
-262144 -1 -1 9750 0;
#X floatatom 508 58 5 0 0 0 - - -, f 5;
#X obj 463 51 - 1;
#X obj 463 73 * -20;
#X obj 463 95 phasor~;
#X obj 463 117 +~ 0.5;
#X obj 463 139 wrap~;
#X obj 464 210 -~ 0.5;
#X obj 464 232 *~ 0.5;
#X obj 464 254 cos~;
#X obj 464 276 *~;
#X obj 551 197 *~ 50;
#X obj 551 219 vd~ \$0-audio;
#X obj 443 340 +~, f 4;
#X obj 372 389 *~ 0;
#X obj 346 468 dac~;
#X obj 243 211 -~ 0.5;
#X obj 243 233 *~ 0.5;
#X obj 243 255 cos~;
#X obj 243 277 *~;
#X obj 330 198 *~ 50;
#X obj 592 328 vsl 15 128 0 1 0 0 empty empty empty 0 -9 0 10 -262144
-1 -1 4850 1;
#X floatatom 592 480 5 0 0 0 - - -, f 5;
#X obj 189 105 delwrite~ \$0-audio 50;
#X floatatom 715 329 5 0 0 0 - - -, f 5;
#X obj 718 218 unsig~;
#X obj 767 290 + 1;
#X obj 747 252 * 0.05;
#X obj 729 168 osc~ 0.05;
#X obj 92 184 delwrite~ \$1-audio 50;
#X obj 330 220 vd~ \$1-audio;
#X connect 0 0 24 0;
#X connect 0 1 30 0;
#X connect 1 0 2 0;
#X connect 1 0 3 0;
#X connect 3 0 4 0;
#X connect 4 0 5 0;
#X connect 5 0 6 0;
#X connect 5 0 21 0;
#X connect 5 0 17 0;
#X connect 6 0 7 0;
#X connect 7 0 8 0;
#X connect 7 0 12 0;
#X connect 8 0 9 0;
#X connect 9 0 10 0;
#X connect 10 0 11 0;
#X connect 11 0 14 1;
#X connect 12 0 13 0;
#X connect 13 0 11 1;
#X connect 14 0 15 0;
#X connect 15 0 16 0;
#X connect 15 0 16 1;
#X connect 17 0 18 0;
#X connect 18 0 19 0;
#X connect 19 0 20 0;
#X connect 20 0 14 0;
#X connect 21 0 31 0;
#X connect 22 0 15 1;
#X connect 22 0 23 0;
#X connect 26 0 28 0;
#X connect 27 0 25 0;
#X connect 28 0 27 0;
#X connect 29 0 26 0;
#X connect 31 0 20 1;
