#N canvas 632 366 673 542 10;
#X declare -stdpath extra/zexy -stdpath extra/moocow -stdpath extra/mrpeach
;
#X obj 127 53 textfile;
#X obj 331 101 print;
#X obj 241 50 bng 15 250 50 0 empty empty empty 17 7 0 10 -262144 -1
-1;
#X obj 382 63 httpget;
#X obj 424 95 tgl 15 0 empty empty empty 17 7 0 10 -262144 -1 -1 0
1;
#X msg 336 23 http://localhost:4000/app/test_file;
#X obj 392 109 bng 15 250 50 0 empty empty empty 17 7 0 10 -262144
-1 -1;
#X msg 587 84 10;
#X obj 540 191 shell;
#X obj 533 224 print;
#X obj 585 219 print;
#X msg 231 162 cd ~/dev/untref/spat-pd/traj;
#X msg 297 211 ls ~/dev/untref/spat-pd/traj;
#X msg 552 153 wget -P ~/dev/untref/spat-pd/traj http://localhost:4000/app/test_file
;
#X obj 294 411 tgl 15 0 empty empty empty 17 7 0 10 -262144 -1 -1 0
1;
#X obj 176 403 print;
#X obj 243 378 http_get;
#X msg 251 320 get http://localhost/app/wji3vTSr/traj_download/po 4000
;
#X obj 639 367 pack;
#X obj 416 416 textfile;
#X msg 232 279 po;
#X obj 479 455 print CREATED;
#X msg 531 396 add 2;
#X msg 419 380 write a.txt cr;
#X obj 350 501 print;
#X symbolatom 338 446 10 0 0 0 po - -, f 10;
#X msg 352 408 set po;
#X msg 327 472 \$1.traj;
#X obj 279 455 bng 15 250 50 0 empty empty empty 17 7 0 10 -262144
-1 -1;
#X connect 2 0 0 0;
#X connect 3 0 1 0;
#X connect 3 0 6 0;
#X connect 3 1 6 0;
#X connect 3 2 4 0;
#X connect 3 2 6 0;
#X connect 5 0 3 0;
#X connect 7 0 3 1;
#X connect 8 0 9 0;
#X connect 8 1 10 0;
#X connect 11 0 8 0;
#X connect 12 0 8 0;
#X connect 13 0 8 0;
#X connect 16 0 15 0;
#X connect 16 2 14 0;
#X connect 17 0 16 0;
#X connect 19 1 21 0;
#X connect 20 0 23 0;
#X connect 20 0 17 0;
#X connect 22 0 19 0;
#X connect 23 0 19 0;
#X connect 25 0 27 0;
#X connect 26 0 25 0;
#X connect 27 0 24 0;
#X connect 28 0 25 0;
