#N canvas 1795 195 450 435 10;
#X obj 50 100 loadbang;
#X obj 110 160 netreceive -u -b;
#X msg 140 130 listen 666;
#X obj 120 190 oscparse;
#X obj 120 220 list trim;
#X obj 60 300 print dist;
#X obj 120 260 route dist ang sass;
#X connect 0 0 2 0;
#X connect 1 0 3 0;
#X connect 1 0 5 0;
#X connect 2 0 1 0;
#X connect 3 0 4 0;
#X connect 4 0 6 0;
