#N canvas 348 448 862 542 10;
#X obj 358 209 tgl 15 0 empty empty ON/OFF 25 5 0 10 #202020 #fcfcfc
#000000 1 1;
#X obj 108 -24 metro;
#X obj 356 179 nbx 5 14 10 1e+37 0 0 empty empty ms 60 7 0 10 #fcfcfc
#000000 #000000 161 256 0;
#X obj 161 10 + 1;
#X obj 108 10 f;
#X obj 110 60 mod 16;
#X obj 108 133 hradio 15 0 0 16 empty empty STEPS 0 -8 0 10 #ffffff
#000000 #0400fc 4;
#X obj 70 300 sel 0 1 2 3 4 5 6 7 8 9 10 11 12 13 14 15;
#X obj 106 394 f;
#X floatatom 276 470 5 0 0 0 - - -, f 5;
#X obj 109 152 vsl 12 100 0 127 0 0 empty empty empty 0 -9 0 10 #fcfcfc
#000000 #000000 6800 1;
#X obj 124 152 vsl 12 100 0 127 0 0 empty empty empty 0 -9 0 10 #fcfcfc
#000000 #000000 4600 1;
#X obj 139 152 vsl 12 100 0 127 0 0 empty empty empty 0 -9 0 10 #fcfcfc
#000000 #000000 7600 1;
#X obj 154 152 vsl 12 100 0 127 0 0 empty empty empty 0 -9 0 10 #fcfcfc
#000000 #000000 5800 1;
#X obj 169 152 vsl 12 100 0 127 0 0 empty empty empty 0 -9 0 10 #fcfcfc
#000000 #000000 7600 1;
#X obj 184 152 vsl 12 100 0 127 0 0 empty empty empty 0 -9 0 10 #fcfcfc
#000000 #000000 3100 1;
#X obj 199 152 vsl 12 100 0 127 0 0 empty empty empty 0 -9 0 10 #fcfcfc
#000000 #000000 5700 1;
#X obj 214 152 vsl 12 100 0 127 0 0 empty empty empty 0 -9 0 10 #fcfcfc
#000000 #000000 6900 1;
#X obj 229 152 vsl 12 100 0 127 0 0 empty empty empty 0 -9 0 10 #fcfcfc
#000000 #000000 9100 1;
#X obj 244 152 vsl 12 100 0 127 0 0 empty empty empty 0 -9 0 10 #fcfcfc
#000000 #000000 4550 1;
#X obj 259 152 vsl 12 100 0 127 0 0 empty empty empty 0 -9 0 10 #fcfcfc
#000000 #000000 6000 1;
#X obj 274 152 vsl 12 100 0 127 0 0 empty empty empty 0 -9 0 10 #fcfcfc
#000000 #000000 5900 1;
#X obj 289 152 vsl 12 100 0 127 0 0 empty empty empty 0 -9 0 10 #fcfcfc
#000000 #000000 0 1;
#X obj 304 152 vsl 12 100 0 127 0 0 empty empty empty 0 -9 0 10 #fcfcfc
#000000 #000000 0 1;
#X obj 319 152 vsl 12 100 0 127 0 0 empty empty empty 0 -9 0 10 #fcfcfc
#000000 #000000 0 1;
#X obj 334 152 vsl 12 100 0 127 0 0 empty empty empty 0 -9 0 10 #fcfcfc
#000000 #000000 0 1;
#X obj 132 394 f;
#X obj 157 394 f;
#X obj 183 394 f;
#X obj 208 394 f;
#X obj 234 394 f;
#X obj 260 394 f;
#X obj 285 394 f;
#X obj 311 394 f;
#X obj 336 394 f;
#X obj 362 394 f;
#X obj 388 394 f;
#X obj 414 394 f;
#X obj 439 394 f;
#X obj 465 394 f;
#X obj 493 394 f;
#X obj 275 501 outlet;
#X connect 0 0 1 0;
#X connect 1 0 4 0;
#X connect 2 0 1 1;
#X connect 3 0 4 1;
#X connect 4 0 3 0;
#X connect 4 0 5 0;
#X connect 5 0 6 0;
#X connect 6 0 7 0;
#X connect 7 0 8 0;
#X connect 7 1 26 0;
#X connect 7 2 27 0;
#X connect 7 3 28 0;
#X connect 7 4 29 0;
#X connect 7 5 30 0;
#X connect 7 6 31 0;
#X connect 7 7 32 0;
#X connect 7 8 33 0;
#X connect 7 9 34 0;
#X connect 7 10 35 0;
#X connect 7 11 36 0;
#X connect 7 12 37 0;
#X connect 7 13 38 0;
#X connect 7 14 39 0;
#X connect 7 15 40 0;
#X connect 8 0 9 0;
#X connect 9 0 41 0;
#X connect 10 0 8 1;
#X connect 11 0 26 1;
#X connect 12 0 27 1;
#X connect 13 0 28 1;
#X connect 14 0 29 1;
#X connect 15 0 30 1;
#X connect 16 0 31 1;
#X connect 17 0 32 1;
#X connect 18 0 33 1;
#X connect 19 0 34 1;
#X connect 20 0 35 1;
#X connect 21 0 36 1;
#X connect 22 0 37 1;
#X connect 23 0 38 1;
#X connect 24 0 39 1;
#X connect 25 0 40 1;
#X connect 26 0 9 0;
#X connect 27 0 9 0;
#X connect 28 0 9 0;
#X connect 29 0 9 0;
#X connect 30 0 9 0;
#X connect 31 0 9 0;
#X connect 32 0 9 0;
#X connect 33 0 9 0;
#X connect 34 0 9 0;
#X connect 35 0 9 0;
#X connect 36 0 9 0;
#X connect 37 0 9 0;
#X connect 38 0 9 0;
#X connect 39 0 9 0;
#X connect 40 0 9 0;
#X coords 0 -1 1 1 334 164 1 100 100;
