#N canvas 344 156 478 361 12;
#X obj 90 200 outlet;
#X obj 20 200 outlet;
#X obj 160 200 outlet;
#X obj 220 200 outlet;
#X obj 280 200 outlet;
#X obj 350 200 outlet;
#X obj 410 200 outlet;
#X text 10 240 angle / distance /on / off /speed /x /y;
#X obj 70 20 inlet;
#X obj 70 54 netreceive -u -b;
#X obj 70 84 oscparse;
#X obj 70 113 list trim;
#X obj 70 150 route ang dist on off spd x y;
#X msg 233 30 listen 666;
#X obj 320 30 loadbang;
#X text 230 0 default udp port 😈;
#X obj 302 116 print debug;
#X connect 8 0 9 0;
#X connect 9 0 10 0;
#X connect 10 0 11 0;
#X connect 11 0 12 0;
#X connect 12 0 1 0;
#X connect 12 1 0 0;
#X connect 12 2 2 0;
#X connect 12 3 3 0;
#X connect 12 4 4 0;
#X connect 12 5 5 0;
#X connect 12 6 6 0;
#X connect 13 0 9 0;
#X connect 14 0 13 0;
