#N canvas 2260 415 1177 664 10;
#X obj 244 136 outlet;
#X obj 194 136 outlet;
#X obj 294 136 outlet;
#X obj 694 246 outlet;
#X obj 300 -44 inlet;
#X obj 300 -10 netreceive -u -b;
#X obj 300 20 oscparse;
#X obj 300 49 list trim;
#X obj 550 -34 loadbang;
#X text 460 -64 default udp port 😈;
#X obj 532 52 print debug;
#X obj 644 246 outlet;
#X obj 494 246 outlet;
#X obj 444 246 outlet;
#X obj 444 206 unpack f f f f;
#X obj 660 210 unpack f f f f;
#X obj 594 246 outlet;
#X obj 544 246 outlet;
#X obj 794 246 outlet;
#X obj 744 246 outlet;
#X obj 344 136 outlet;
#X msg 460 -30 listen 6666;
#X obj 300 86 route x y vel press cmd scene rev;
#X obj 393 136 outlet;
#X text 430 356 /on / off /x /y /vel /press /cmd /scene /rev;
#X connect 4 0 5 0;
#X connect 5 0 6 0;
#X connect 6 0 7 0;
#X connect 7 0 22 0;
#X connect 8 0 21 0;
#X connect 14 0 13 0;
#X connect 14 1 12 0;
#X connect 14 2 17 0;
#X connect 14 3 16 0;
#X connect 15 0 11 0;
#X connect 15 1 3 0;
#X connect 15 2 19 0;
#X connect 15 3 18 0;
#X connect 21 0 5 0;
#X connect 22 0 1 0;
#X connect 22 1 0 0;
#X connect 22 2 2 0;
#X connect 22 3 20 0;
#X connect 22 4 23 0;
#X connect 22 5 14 0;
#X connect 22 6 15 0;
