#N canvas 349 421 651 436 12;
#X obj 70 200 outlet;
#X obj 20 200 outlet;
#X obj 120 200 outlet;
#X obj 450 280 outlet;
#X obj 70 20 inlet;
#X obj 70 54 netreceive -u -b;
#X obj 70 84 oscparse;
#X obj 70 113 list trim;
#X obj 320 30 loadbang;
#X text 230 0 default udp port 😈;
#X obj 302 116 print debug;
#X obj 390 280 outlet;
#X obj 330 280 outlet;
#X obj 270 280 outlet;
#X text 200 420 /on / off /x /y /vel /scene /rev;
#X obj 270 240 unpack f f;
#X obj 400 240 unpack f f;
#X obj 70 150 route x y vel press scene rev;
#X obj 170 200 outlet;
#X msg 233 30 listen 6666;
#X connect 4 0 5 0;
#X connect 5 0 6 0;
#X connect 6 0 7 0;
#X connect 7 0 17 0;
#X connect 8 0 19 0;
#X connect 15 0 13 0;
#X connect 15 1 12 0;
#X connect 16 0 11 0;
#X connect 16 1 3 0;
#X connect 17 0 1 0;
#X connect 17 1 0 0;
#X connect 17 2 2 0;
#X connect 17 3 18 0;
#X connect 17 4 15 0;
#X connect 17 5 16 0;
#X connect 19 0 5 0;
