#N canvas 100 48 1177 664 10;
#X obj 265 136 outlet;
#X obj 215 136 outlet;
#X obj 315 136 outlet;
#X obj 710 246 outlet;
#X obj 300 -44 inlet;
#X obj 300 -10 netreceive -u -b;
#X obj 300 20 oscparse;
#X obj 300 49 list trim;
#X msg 463 -34 listen 666;
#X obj 550 -34 loadbang;
#X text 460 -64 default udp port 😈;
#X obj 532 52 print debug;
#X obj 660 246 outlet;
#X obj 480 246 outlet;
#X obj 430 246 outlet;
#X obj 430 206 unpack f f f f;
#X obj 660 210 unpack f f f f;
#X obj 580 246 outlet;
#X obj 530 246 outlet;
#X obj 820 246 outlet;
#X obj 770 246 outlet;
#X obj 300 86 route x y vel press scene rev;
#X obj 365 136 outlet;
#X text 430 356 /on / off /x /y /vel /press /scene /rev;
#X connect 4 0 5 0;
#X connect 5 0 6 0;
#X connect 6 0 7 0;
#X connect 7 0 21 0;
#X connect 8 0 5 0;
#X connect 9 0 8 0;
#X connect 15 0 14 0;
#X connect 15 1 13 0;
#X connect 15 2 18 0;
#X connect 15 3 17 0;
#X connect 16 0 12 0;
#X connect 16 1 3 0;
#X connect 16 2 20 0;
#X connect 16 3 19 0;
#X connect 21 0 1 0;
#X connect 21 1 0 0;
#X connect 21 2 2 0;
#X connect 21 3 22 0;
#X connect 21 4 15 0;
#X connect 21 5 16 0;
