#N canvas 637 174 450 300 10;
#X obj 140 100 netsend -u -b;
#X msg 156 50 connect localhost 666;
#X obj 158 182 oscparse;
#X obj 60 80 oscformat;
#X msg 70 30 set mouse banana;
#X obj 60 160 print;
#X obj 30 120 oscparse;
#X msg 272 -76 1 2 3;
#X obj 272 45 oscformat cat horse pig;
#X msg 294 -20 set dog ferret;
#X msg 292 7 set mouse banana;
#X obj 380 79 oscparse;
#X obj 272 78 print packet;
#X msg 280 -49 4 5 weasel 6 7 rat;
#X text 470 43 creation arguments are OSC address;
#X text 338 -86 OSC messages with numbers and symbols. Except as shown
below the message will contain 'float' and 'string' data.;
#X msg 542 156 disconnect;
#X obj 534 183 netsend -u -b;
#X obj 535 82 list prepend send;
#X obj 535 107 list trim;
#X obj 380 104 print reassembled;
#X text 637 156 don't send;
#X text 426 -18 set message to change OSC address;
#X text 730 131 send as UDP;
#X msg 543 132 connect localhost 667;
#X connect 1 0 0 0;
#X connect 3 0 6 0;
#X connect 4 0 3 0;
#X connect 6 0 5 0;
#X connect 7 0 8 0;
#X connect 8 0 12 0;
#X connect 8 0 18 0;
#X connect 8 0 11 0;
#X connect 9 0 8 0;
#X connect 10 0 8 0;
#X connect 11 0 20 0;
#X connect 13 0 8 0;
#X connect 16 0 17 0;
#X connect 18 0 19 0;
#X connect 19 0 17 0;
#X connect 24 0 17 0;
